{
  "source": "C:\\Users\\Peter\\Desktop\\stuff\\MIUN\\quantitative_research\\video_compression\\videos\\BVI-HD\\BVI-HD_CDVL_videos\\ORIG\\FishAndRock_1920x1080_30fps.mp4",
  "output": "C:\\Users\\Peter\\Desktop\\stuff\\MIUN\\quantitative_research\\video_compression\\compressed_videos\\BVI-HD\\hevc\\3\\FishAndRock_1920x1080_30fps_hevc.mp4",
  "codec": "hevc",
  "ok": "Input #0, mov,mp4,m4a,3gp,3g2,mj2, from 'C:\\Users\\Peter\\Desktop\\stuff\\MIUN\\quantitative_research\\video_compression\\videos\\BVI-HD\\BVI-HD_CDVL_videos\\ORIG\\FishAndRock_1920x1080_30fps.mp4':\n  Metadata:\n    major_brand     : isom\n    minor_version   : 512\n    compatible_brands: isomiso2avc1mp41\n    encoder         : Lavf54.28.101\n  Duration: 00:00:05.00, start: 0.000000, bitrate: 251564 kb/s\n  Stream #0:0[0x1](und): Video: h264 (High 4:4:4 Predictive) (avc1 / 0x31637661), yuv420p(progressive), 1920x1080, 251561 kb/s, 30 fps, 30 tbr, 30 tbn (default)\n    Metadata:\n      handler_name    : VideoHandler\n      vendor_id       : [0][0][0][0]\n[out#0/mp4 @ 00000129dde41700] Codec AVOption b:a (set bitrate (in bits/s)) has not been used for any stream. The most likely reason is either wrong type (e.g. a video option with no video streams) or that it is a private option of some decoder which was not actually used for any stream.\nStream mapping:\n  Stream #0:0 -> #0:0 (h264 (native) -> hevc (libx265))\nPress [q] to stop, [?] for help\n[libx265 @ 00000129de8e0180] Unknown option: \"aq-mode.\nx265 [info]: HEVC encoder version 4.1+190-8f11c33ac\nx265 [info]: build info [Windows][GCC 15.1.0][64 bit] 10bit\nx265 [info]: using cpu capabilities: MMX2 SSE2Fast LZCNT SSSE3 SSE4.2 AVX FMA3 BMI2 AVX2\nx265 [info]: Main 10 profile, Level-4 (Main tier)\nx265 [info]: Thread pool created using 12 threads\nx265 [info]: Slices                              : 1\nx265 [info]: frame threads / pool features       : 3 / wpp(17 rows)\nx265 [info]: Coding QT: max CU size, min CU size : 64 / 8\nx265 [info]: Residual QT: max TU size, max depth : 32 / 1 inter / 1 intra\nx265 [info]: ME / range / subpel / merge         : star / 57 / 3 / 3\nx265 [info]: Keyframe min / max / scenecut / bias  : 25 / 250 / 40 / 5.00 \nx265 [info]: Lookahead / bframes / badapt        : 25 / 4 / 2\nx265 [info]: b-pyramid / weightp / weightb       : 1 / 1 / 0\nx265 [info]: References / ref-limit  cu / depth  : 4 / on / on\nx265 [info]: AQ: mode / str / qg-size / cu-tree  : 2 / 1.0 / 32 / 1\nx265 [info]: Rate Control / qCompress            : ABR-3000 kbps / 0.60\nx265 [info]: VBV/HRD buffer / max-rate / init    : 3000 / 3000 / 0.750\nx265 [info]: tools: rect limit-modes rd=4 psy-rd=2.00 rdoq=2 psy-rdoq=1.00\nx265 [info]: tools: rskip mode=1 signhide tmvp strong-intra-smoothing lslices=4\nx265 [info]: tools: deblock sao dhdr10-info\nOutput #0, mp4, to 'C:\\Users\\Peter\\Desktop\\stuff\\MIUN\\quantitative_research\\video_compression\\compressed_videos\\BVI-HD\\hevc\\3\\FishAndRock_1920x1080_30fps_hevc.mp4':\n  Metadata:\n    major_brand     : isom\n    minor_version   : 512\n    compatible_brands: isomiso2avc1mp41\n    encoder         : Lavf62.3.100\n  Stream #0:0(und): Video: hevc (hev1 / 0x31766568), yuv420p10le(tv, progressive), 1920x1080, q=2-31, 3000 kb/s, 30 fps, 15360 tbn (default)\n    Metadata:\n      encoder         : Lavc62.11.100 libx265\n      handler_name    : VideoHandler\n      vendor_id       : [0][0][0][0]\n    Side data:\n      cpb: bitrate max/min/avg: 3000000/0/3000000 buffer size: 3000000 vbv_delay: N/A\nframe=    0 fps=0.0 q=0.0 size=       0KiB time=N/A bitrate=N/A speed=N/A elapsed=0:00:00.51    \nframe=    0 fps=0.0 q=0.0 size=       0KiB time=N/A bitrate=N/A speed=N/A elapsed=0:00:01.07    \nframe=    0 fps=0.0 q=0.0 size=       0KiB time=N/A bitrate=N/A speed=N/A elapsed=0:00:01.58    \nframe=    0 fps=0.0 q=0.0 size=       0KiB time=N/A bitrate=N/A speed=N/A elapsed=0:00:02.09    \nframe=    0 fps=0.0 q=0.0 size=       0KiB time=N/A bitrate=N/A speed=N/A elapsed=0:00:02.61    \nframe=    0 fps=0.0 q=0.0 size=       0KiB time=N/A bitrate=N/A speed=N/A elapsed=0:00:03.12    \nframe=    0 fps=0.0 q=0.0 size=       0KiB time=N/A bitrate=N/A speed=N/A elapsed=0:00:03.64    \nframe=    0 fps=0.0 q=0.0 size=       0KiB time=N/A bitrate=N/A speed=N/A elapsed=0:00:04.16    \nframe=    0 fps=0.0 q=0.0 size=       0KiB time=N/A bitrate=N/A speed=N/A elapsed=0:00:04.67    \nframe=    1 fps=0.2 q=32.6 size=       0KiB time=-00:00:00.03 bitrate=N/A speed=N/A elapsed=0:00:05.19    \nframe=    1 fps=0.2 q=32.6 size=       0KiB time=-00:00:00.03 bitrate=N/A speed=N/A elapsed=0:00:05.71    \nframe=    1 fps=0.2 q=32.6 size=       0KiB time=-00:00:00.03 bitrate=N/A speed=N/A elapsed=0:00:06.26    \nframe=    2 fps=0.3 q=36.1 size=       0KiB time=00:00:00.00 bitrate=N/A speed=   0x elapsed=0:00:06.83    \nframe=    2 fps=0.3 q=36.1 size=       0KiB time=00:00:00.00 bitrate=N/A speed=   0x elapsed=0:00:07.38    \nframe=    2 fps=0.3 q=36.1 size=       0KiB time=00:00:00.00 bitrate=N/A speed=   0x elapsed=0:00:07.90    \nframe=    2 fps=0.2 q=36.1 size=       0KiB time=00:00:00.00 bitrate=N/A speed=   0x elapsed=0:00:08.42    \nframe=    3 fps=0.3 q=42.9 size=       0KiB time=00:00:00.03 bitrate=  10.6kbits/s speed=0.00373x elapsed=0:00:08.94    \nframe=    3 fps=0.3 q=42.9 size=       0KiB time=00:00:00.03 bitrate=  10.6kbits/s speed=0.00352x elapsed=0:00:09.47    \nframe=    4 fps=0.4 q=33.2 size=       0KiB time=00:00:00.06 bitrate=   5.3kbits/s speed=0.00666x elapsed=0:00:10.00    \nframe=    4 fps=0.4 q=33.2 size=       0KiB time=00:00:00.06 bitrate=   5.3kbits/s speed=0.00633x elapsed=0:00:10.52    \nframe=    4 fps=0.4 q=33.2 size=       0KiB time=00:00:00.06 bitrate=   5.3kbits/s speed=0.00603x elapsed=0:00:11.06    \nframe=    5 fps=0.4 q=35.8 size=       0KiB time=00:00:00.10 bitrate=   3.5kbits/s speed=0.00863x elapsed=0:00:11.58    \nframe=    5 fps=0.4 q=35.8 size=       0KiB time=00:00:00.10 bitrate=   3.5kbits/s speed=0.00826x elapsed=0:00:12.10    \nframe=    5 fps=0.4 q=35.8 size=       0KiB time=00:00:00.10 bitrate=   3.5kbits/s speed=0.00793x elapsed=0:00:12.60    \nframe=    5 fps=0.4 q=35.8 size=       0KiB time=00:00:00.10 bitrate=   3.5kbits/s speed=0.00762x elapsed=0:00:13.13    \nframe=    5 fps=0.4 q=35.8 size=       0KiB time=00:00:00.10 bitrate=   3.5kbits/s speed=0.00732x elapsed=0:00:13.66    \nframe=    5 fps=0.4 q=35.8 size=       0KiB time=00:00:00.10 bitrate=   3.5kbits/s speed=0.00705x elapsed=0:00:14.18    \nframe=    6 fps=0.4 q=36.3 size=       0KiB time=00:00:00.13 bitrate=   2.6kbits/s speed=0.00906x elapsed=0:00:14.71    \nframe=    6 fps=0.4 q=36.3 size=       0KiB time=00:00:00.13 bitrate=   2.6kbits/s speed=0.00876x elapsed=0:00:15.22    \nframe=    6 fps=0.4 q=36.3 size=       0KiB time=00:00:00.13 bitrate=   2.6kbits/s speed=0.00846x elapsed=0:00:15.75    \nframe=    6 fps=0.4 q=36.3 size=       0KiB time=00:00:00.13 bitrate=   2.6kbits/s speed=0.00819x elapsed=0:00:16.27    \nframe=    7 fps=0.4 q=36.9 size=       0KiB time=00:00:00.16 bitrate=   2.1kbits/s speed=0.00991x elapsed=0:00:16.81    \nframe=    8 fps=0.5 q=30.8 size=       0KiB time=00:00:00.20 bitrate=   1.8kbits/s speed=0.0115x elapsed=0:00:17.33    \nframe=    8 fps=0.4 q=30.8 size=       0KiB time=00:00:00.20 bitrate=   1.8kbits/s speed=0.0112x elapsed=0:00:17.86    \nframe=    9 fps=0.5 q=33.0 size=       0KiB time=00:00:00.23 bitrate=   1.5kbits/s speed=0.0127x elapsed=0:00:18.41    \nframe=    9 fps=0.5 q=33.0 size=       0KiB time=00:00:00.23 bitrate=   1.5kbits/s speed=0.0123x elapsed=0:00:18.92    \nframe=    9 fps=0.5 q=33.0 size=       0KiB time=00:00:00.23 bitrate=   1.5kbits/s speed=0.012x elapsed=0:00:19.45    \nframe=    9 fps=0.5 q=33.0 size=       0KiB time=00:00:00.23 bitrate=   1.5kbits/s speed=0.0117x elapsed=0:00:19.96    \nframe=    9 fps=0.4 q=33.0 size=       0KiB time=00:00:00.23 bitrate=   1.5kbits/s speed=0.0114x elapsed=0:00:20.50    \nframe=    9 fps=0.4 q=33.0 size=       0KiB time=00:00:00.23 bitrate=   1.5kbits/s speed=0.0111x elapsed=0:00:21.04    \nframe=   10 fps=0.5 q=34.7 size=       0KiB time=00:00:00.26 bitrate=   1.3kbits/s speed=0.0124x elapsed=0:00:21.58    \nframe=   10 fps=0.5 q=34.7 size=       0KiB time=00:00:00.26 bitrate=   1.3kbits/s speed=0.0121x elapsed=0:00:22.11    \nframe=   10 fps=0.4 q=34.7 size=       0KiB time=00:00:00.26 bitrate=   1.3kbits/s speed=0.0118x elapsed=0:00:22.63    \nframe=   10 fps=0.4 q=34.7 size=       0KiB time=00:00:00.26 bitrate=   1.3kbits/s speed=0.0115x elapsed=0:00:23.15    \nframe=   11 fps=0.5 q=36.1 size=       0KiB time=00:00:00.30 bitrate=   1.2kbits/s speed=0.0127x elapsed=0:00:23.67    \nframe=   11 fps=0.5 q=36.1 size=       0KiB time=00:00:00.30 bitrate=   1.2kbits/s speed=0.0124x elapsed=0:00:24.19    \nframe=   12 fps=0.5 q=29.9 size=       0KiB time=00:00:00.33 bitrate=   1.1kbits/s speed=0.0135x elapsed=0:00:24.70    \nframe=   12 fps=0.5 q=29.9 size=       0KiB time=00:00:00.33 bitrate=   1.1kbits/s speed=0.0132x elapsed=0:00:25.24    \nframe=   12 fps=0.5 q=29.9 size=       0KiB time=00:00:00.33 bitrate=   1.1kbits/s speed=0.0129x elapsed=0:00:25.76    \nframe=   12 fps=0.5 q=29.9 size=       0KiB time=00:00:00.33 bitrate=   1.1kbits/s speed=0.0127x elapsed=0:00:26.29    \nframe=   13 fps=0.5 q=33.4 size=       0KiB time=00:00:00.36 bitrate=   1.0kbits/s speed=0.0137x elapsed=0:00:26.82    \nframe=   13 fps=0.5 q=33.4 size=       0KiB time=00:00:00.36 bitrate=   1.0kbits/s speed=0.0134x elapsed=0:00:27.32    \nframe=   13 fps=0.5 q=33.4 size=       0KiB time=00:00:00.36 bitrate=   1.0kbits/s speed=0.0132x elapsed=0:00:27.84    \nframe=   14 fps=0.5 q=35.0 size=       0KiB time=00:00:00.40 bitrate=   0.9kbits/s speed=0.0141x elapsed=0:00:28.35    \nframe=   14 fps=0.5 q=35.0 size=       0KiB time=00:00:00.40 bitrate=   0.9kbits/s speed=0.0138x elapsed=0:00:28.88    \nframe=   14 fps=0.5 q=35.0 size=       0KiB time=00:00:00.40 bitrate=   0.9kbits/s speed=0.0136x elapsed=0:00:29.39    \nframe=   15 fps=0.5 q=35.2 size=       0KiB time=00:00:00.43 bitrate=   0.8kbits/s speed=0.0145x elapsed=0:00:29.90    \nframe=   15 fps=0.5 q=35.2 size=       0KiB time=00:00:00.43 bitrate=   0.8kbits/s speed=0.0142x elapsed=0:00:30.45    \nframe=   15 fps=0.5 q=35.2 size=       0KiB time=00:00:00.43 bitrate=   0.8kbits/s speed=0.014x elapsed=0:00:31.00    \nframe=   16 fps=0.5 q=29.4 size=       0KiB time=00:00:00.46 bitrate=   0.8kbits/s speed=0.0148x elapsed=0:00:31.51    \nframe=   17 fps=0.5 q=33.0 size=       0KiB time=00:00:00.50 bitrate=   0.7kbits/s speed=0.0156x elapsed=0:00:32.03    \nframe=   17 fps=0.5 q=33.0 size=       0KiB time=00:00:00.50 bitrate=   0.7kbits/s speed=0.0154x elapsed=0:00:32.55    \nframe=   17 fps=0.5 q=33.0 size=       0KiB time=00:00:00.50 bitrate=   0.7kbits/s speed=0.0151x elapsed=0:00:33.10    \nframe=   17 fps=0.5 q=33.0 size=       0KiB time=00:00:00.50 bitrate=   0.7kbits/s speed=0.0149x elapsed=0:00:33.63    \nframe=   17 fps=0.5 q=33.0 size=       0KiB time=00:00:00.50 bitrate=   0.7kbits/s speed=0.0146x elapsed=0:00:34.16    \nframe=   17 fps=0.5 q=33.0 size=       0KiB time=00:00:00.50 bitrate=   0.7kbits/s speed=0.0144x elapsed=0:00:34.66    \nframe=   18 fps=0.5 q=35.1 size=       0KiB time=00:00:00.53 bitrate=   0.7kbits/s speed=0.0152x elapsed=0:00:35.19    \nframe=   18 fps=0.5 q=35.1 size=       0KiB time=00:00:00.53 bitrate=   0.7kbits/s speed=0.0149x elapsed=0:00:35.71    \nframe=   18 fps=0.5 q=35.1 size=       0KiB time=00:00:00.53 bitrate=   0.7kbits/s speed=0.0147x elapsed=0:00:36.24    \nframe=   19 fps=0.5 q=34.8 size=       0KiB time=00:00:00.56 bitrate=   0.6kbits/s speed=0.0154x elapsed=0:00:36.76    \nframe=   19 fps=0.5 q=34.8 size=       0KiB time=00:00:00.56 bitrate=   0.6kbits/s speed=0.0152x elapsed=0:00:37.29    \nframe=   19 fps=0.5 q=34.8 size=       0KiB time=00:00:00.56 bitrate=   0.6kbits/s speed=0.015x elapsed=0:00:37.82    \nframe=   20 fps=0.5 q=28.9 size=       0KiB time=00:00:00.60 bitrate=   0.6kbits/s speed=0.0156x elapsed=0:00:38.35    \nframe=   20 fps=0.5 q=28.9 size=       0KiB time=00:00:00.60 bitrate=   0.6kbits/s speed=0.0154x elapsed=0:00:38.86    \nframe=   20 fps=0.5 q=28.9 size=       0KiB time=00:00:00.60 bitrate=   0.6kbits/s speed=0.0152x elapsed=0:00:39.38    \nframe=   20 fps=0.5 q=28.9 size=       0KiB time=00:00:00.60 bitrate=   0.6kbits/s speed=0.015x elapsed=0:00:39.89    \nframe=   20 fps=0.5 q=28.9 size=       0KiB time=00:00:00.60 bitrate=   0.6kbits/s speed=0.0148x elapsed=0:00:40.40    \nframe=   21 fps=0.5 q=34.0 size=       0KiB time=00:00:00.63 bitrate=   0.6kbits/s speed=0.0155x elapsed=0:00:40.92    \nframe=   21 fps=0.5 q=34.0 size=       0KiB time=00:00:00.63 bitrate=   0.6kbits/s speed=0.0153x elapsed=0:00:41.45    \nframe=   21 fps=0.5 q=34.0 size=       0KiB time=00:00:00.63 bitrate=   0.6kbits/s speed=0.0151x elapsed=0:00:41.98    \nframe=   22 fps=0.5 q=34.8 size=       0KiB time=00:00:00.66 bitrate=   0.5kbits/s speed=0.0157x elapsed=0:00:42.50    \nframe=   22 fps=0.5 q=34.8 size=       0KiB time=00:00:00.66 bitrate=   0.5kbits/s speed=0.0155x elapsed=0:00:43.02    \nframe=   22 fps=0.5 q=34.8 size=       0KiB time=00:00:00.66 bitrate=   0.5kbits/s speed=0.0153x elapsed=0:00:43.55    \nframe=   22 fps=0.5 q=34.8 size=       0KiB time=00:00:00.66 bitrate=   0.5kbits/s speed=0.0151x elapsed=0:00:44.10    \nframe=   23 fps=0.5 q=28.8 size=       0KiB time=00:00:00.70 bitrate=   0.5kbits/s speed=0.0157x elapsed=0:00:44.61    \nframe=   23 fps=0.5 q=28.8 size=       0KiB time=00:00:00.70 bitrate=   0.5kbits/s speed=0.0155x elapsed=0:00:45.16    \nframe=   23 fps=0.5 q=28.8 size=       0KiB time=00:00:00.70 bitrate=   0.5kbits/s speed=0.0153x elapsed=0:00:45.82    \nframe=   24 fps=0.5 q=32.7 size=     256KiB time=00:00:00.73 bitrate=2860.2kbits/s speed=0.0158x elapsed=0:00:46.39    \nframe=   24 fps=0.5 q=32.7 size=     256KiB time=00:00:00.73 bitrate=2860.2kbits/s speed=0.0156x elapsed=0:00:46.92    \nframe=   24 fps=0.5 q=32.7 size=     256KiB time=00:00:00.73 bitrate=2860.2kbits/s speed=0.0154x elapsed=0:00:47.46    \nframe=   24 fps=0.5 q=32.7 size=     256KiB time=00:00:00.73 bitrate=2860.2kbits/s speed=0.0153x elapsed=0:00:47.98    \nframe=   24 fps=0.5 q=32.7 size=     256KiB time=00:00:00.73 bitrate=2860.2kbits/s speed=0.0151x elapsed=0:00:48.50    \nframe=   24 fps=0.5 q=32.7 size=     256KiB time=00:00:00.73 bitrate=2860.2kbits/s speed=0.015x elapsed=0:00:49.04    \nframe=   24 fps=0.5 q=32.7 size=     256KiB time=00:00:00.73 bitrate=2860.2kbits/s speed=0.0148x elapsed=0:00:49.59    \nframe=   25 fps=0.5 q=34.5 size=     256KiB time=00:00:00.76 bitrate=2735.9kbits/s speed=0.0153x elapsed=0:00:50.11    \nframe=   25 fps=0.5 q=34.5 size=     256KiB time=00:00:00.76 bitrate=2735.9kbits/s speed=0.0151x elapsed=0:00:50.63    \nframe=   26 fps=0.5 q=34.5 size=     256KiB time=00:00:00.80 bitrate=2621.9kbits/s speed=0.0156x elapsed=0:00:51.19    \nframe=   26 fps=0.5 q=34.5 size=     256KiB time=00:00:00.80 bitrate=2621.9kbits/s speed=0.0155x elapsed=0:00:51.73    \nframe=   26 fps=0.5 q=34.5 size=     256KiB time=00:00:00.80 bitrate=2621.9kbits/s speed=0.0153x elapsed=0:00:52.26    \nframe=   26 fps=0.5 q=34.5 size=     256KiB time=00:00:00.80 bitrate=2621.9kbits/s speed=0.0152x elapsed=0:00:52.78    \nframe=   26 fps=0.5 q=34.5 size=     256KiB time=00:00:00.80 bitrate=2621.9kbits/s speed=0.015x elapsed=0:00:53.32    \nframe=   26 fps=0.5 q=34.5 size=     256KiB time=00:00:00.80 bitrate=2621.9kbits/s speed=0.0149x elapsed=0:00:53.85    \nframe=   27 fps=0.5 q=28.3 size=     256KiB time=00:00:00.83 bitrate=2517.0kbits/s speed=0.0153x elapsed=0:00:54.37    \nframe=   27 fps=0.5 q=28.3 size=     256KiB time=00:00:00.83 bitrate=2517.0kbits/s speed=0.0152x elapsed=0:00:54.90    \nframe=   28 fps=0.5 q=31.8 size=     256KiB time=00:00:00.86 bitrate=2420.2kbits/s speed=0.0156x elapsed=0:00:55.42    \nframe=   28 fps=0.5 q=31.8 size=     256KiB time=00:00:00.86 bitrate=2420.2kbits/s speed=0.0155x elapsed=0:00:55.94    \nframe=   28 fps=0.5 q=31.8 size=     256KiB time=00:00:00.86 bitrate=2420.2kbits/s speed=0.0153x elapsed=0:00:56.50    \nframe=   28 fps=0.5 q=31.8 size=     256KiB time=00:00:00.86 bitrate=2420.2kbits/s speed=0.0152x elapsed=0:00:57.02    \nframe=   28 fps=0.5 q=31.8 size=     256KiB time=00:00:00.86 bitrate=2420.2kbits/s speed=0.0151x elapsed=0:00:57.55    \nframe=   29 fps=0.5 q=34.0 size=     256KiB time=00:00:00.90 bitrate=2330.6kbits/s speed=0.0155x elapsed=0:00:58.11    \nframe=   30 fps=0.5 q=34.2 size=     256KiB time=00:00:00.93 bitrate=2247.3kbits/s speed=0.0159x elapsed=0:00:58.66    \nframe=   30 fps=0.5 q=34.2 size=     256KiB time=00:00:00.93 bitrate=2247.3kbits/s speed=0.0158x elapsed=0:00:59.17    \nframe=   30 fps=0.5 q=34.2 size=     256KiB time=00:00:00.93 bitrate=2247.3kbits/s speed=0.0156x elapsed=0:00:59.68    \nframe=   30 fps=0.5 q=34.2 size=     256KiB time=00:00:00.93 bitrate=2247.3kbits/s speed=0.0155x elapsed=0:01:00.21    \nframe=   30 fps=0.5 q=34.2 size=     256KiB time=00:00:00.93 bitrate=2247.3kbits/s speed=0.0154x elapsed=0:01:00.74    \nframe=   30 fps=0.5 q=34.2 size=     256KiB time=00:00:00.93 bitrate=2247.3kbits/s speed=0.0152x elapsed=0:01:01.26    \nframe=   31 fps=0.5 q=28.1 size=     256KiB time=00:00:00.96 bitrate=2169.8kbits/s speed=0.0156x elapsed=0:01:01.79    \nframe=   32 fps=0.5 q=31.7 size=     256KiB time=00:00:01.00 bitrate=2097.5kbits/s speed=0.016x elapsed=0:01:02.32    \nframe=   32 fps=0.5 q=31.7 size=     256KiB time=00:00:01.00 bitrate=2097.5kbits/s speed=0.0159x elapsed=0:01:02.85    \nframe=   32 fps=0.5 q=31.7 size=     256KiB time=00:00:01.00 bitrate=2097.5kbits/s speed=0.0158x elapsed=0:01:03.38    \nframe=   32 fps=0.5 q=31.7 size=     256KiB time=00:00:01.00 bitrate=2097.5kbits/s speed=0.0156x elapsed=0:01:03.90    \nframe=   32 fps=0.5 q=31.7 size=     256KiB time=00:00:01.00 bitrate=2097.5kbits/s speed=0.0155x elapsed=0:01:04.42    \nframe=   33 fps=0.5 q=34.2 size=     256KiB time=00:00:01.03 bitrate=2029.8kbits/s speed=0.0159x elapsed=0:01:04.94    \nframe=   33 fps=0.5 q=34.2 size=     256KiB time=00:00:01.03 bitrate=2029.8kbits/s speed=0.0158x elapsed=0:01:05.45    \nframe=   33 fps=0.5 q=34.2 size=     256KiB time=00:00:01.03 bitrate=2029.8kbits/s speed=0.0157x elapsed=0:01:05.97    \nframe=   34 fps=0.5 q=34.1 size=     256KiB time=00:00:01.06 bitrate=1966.4kbits/s speed=0.016x elapsed=0:01:06.50    \nframe=   34 fps=0.5 q=34.1 size=     256KiB time=00:00:01.06 bitrate=1966.4kbits/s speed=0.0159x elapsed=0:01:07.03    \nframe=   34 fps=0.5 q=34.1 size=     256KiB time=00:00:01.06 bitrate=1966.4kbits/s speed=0.0158x elapsed=0:01:07.57    \nframe=   35 fps=0.5 q=27.7 size=     256KiB time=00:00:01.10 bitrate=1906.8kbits/s speed=0.0161x elapsed=0:01:08.12    \nframe=   35 fps=0.5 q=27.7 size=     256KiB time=00:00:01.10 bitrate=1906.8kbits/s speed=0.016x elapsed=0:01:08.64    \nframe=   36 fps=0.5 q=31.2 size=     256KiB time=00:00:01.13 bitrate=1850.7kbits/s speed=0.0164x elapsed=0:01:09.15    \nframe=   36 fps=0.5 q=31.2 size=     256KiB time=00:00:01.13 bitrate=1850.7kbits/s speed=0.0163x elapsed=0:01:09.68    \nframe=   36 fps=0.5 q=31.2 size=     256KiB time=00:00:01.13 bitrate=1850.7kbits/s speed=0.0161x elapsed=0:01:10.20    \nframe=   36 fps=0.5 q=31.2 size=     256KiB time=00:00:01.13 bitrate=1850.7kbits/s speed=0.016x elapsed=0:01:10.72    \nframe=   36 fps=0.5 q=31.2 size=     256KiB time=00:00:01.13 bitrate=1850.7kbits/s speed=0.0159x elapsed=0:01:11.23    \nframe=   36 fps=0.5 q=31.2 size=     256KiB time=00:00:01.13 bitrate=1850.7kbits/s speed=0.0158x elapsed=0:01:11.75    \nframe=   36 fps=0.5 q=31.2 size=     256KiB time=00:00:01.13 bitrate=1850.7kbits/s speed=0.0157x elapsed=0:01:12.27    \nframe=   37 fps=0.5 q=34.0 size=     256KiB time=00:00:01.16 bitrate=1797.9kbits/s speed=0.016x elapsed=0:01:12.78    \nframe=   37 fps=0.5 q=34.0 size=     256KiB time=00:00:01.16 bitrate=1797.9kbits/s speed=0.0159x elapsed=0:01:13.31    \nframe=   38 fps=0.5 q=27.8 size=     256KiB time=00:00:01.20 bitrate=1747.9kbits/s speed=0.0162x elapsed=0:01:13.85    \nframe=   39 fps=0.5 q=31.7 size=     256KiB time=00:00:01.23 bitrate=1700.7kbits/s speed=0.0166x elapsed=0:01:14.38    \nframe=   39 fps=0.5 q=31.7 size=     256KiB time=00:00:01.23 bitrate=1700.7kbits/s speed=0.0165x elapsed=0:01:14.93    \nframe=   39 fps=0.5 q=31.7 size=     256KiB time=00:00:01.23 bitrate=1700.7kbits/s speed=0.0163x elapsed=0:01:15.45    \nframe=   39 fps=0.5 q=31.7 size=     256KiB time=00:00:01.23 bitrate=1700.7kbits/s speed=0.0162x elapsed=0:01:15.98    \nframe=   39 fps=0.5 q=31.7 size=     256KiB time=00:00:01.23 bitrate=1700.7kbits/s speed=0.0161x elapsed=0:01:16.51    \nframe=   39 fps=0.5 q=31.7 size=     256KiB time=00:00:01.23 bitrate=1700.7kbits/s speed=0.016x elapsed=0:01:17.01    \nframe=   39 fps=0.5 q=31.7 size=     256KiB time=00:00:01.23 bitrate=1700.7kbits/s speed=0.0159x elapsed=0:01:17.53    \nframe=   40 fps=0.5 q=34.2 size=     256KiB time=00:00:01.26 bitrate=1655.9kbits/s speed=0.0162x elapsed=0:01:18.06    \nframe=   40 fps=0.5 q=34.2 size=     256KiB time=00:00:01.26 bitrate=1655.9kbits/s speed=0.0161x elapsed=0:01:18.57    \nframe=   40 fps=0.5 q=34.2 size=     256KiB time=00:00:01.26 bitrate=1655.9kbits/s speed=0.016x elapsed=0:01:19.10    \nframe=   40 fps=0.5 q=34.2 size=     256KiB time=00:00:01.26 bitrate=1655.9kbits/s speed=0.0159x elapsed=0:01:19.63    \nframe=   40 fps=0.5 q=34.2 size=     256KiB time=00:00:01.26 bitrate=1655.9kbits/s speed=0.0158x elapsed=0:01:20.17    \nframe=   40 fps=0.5 q=34.2 size=     256KiB time=00:00:01.26 bitrate=1655.9kbits/s speed=0.0157x elapsed=0:01:20.69    \nframe=   41 fps=0.5 q=34.2 size=     256KiB time=00:00:01.30 bitrate=1613.5kbits/s speed=0.016x elapsed=0:01:21.22    \nframe=   41 fps=0.5 q=34.2 size=     256KiB time=00:00:01.30 bitrate=1613.5kbits/s speed=0.0159x elapsed=0:01:21.80    \nframe=   41 fps=0.5 q=34.2 size=     256KiB time=00:00:01.30 bitrate=1613.5kbits/s speed=0.0158x elapsed=0:01:22.39    \nframe=   41 fps=0.5 q=34.2 size=     256KiB time=00:00:01.30 bitrate=1613.5kbits/s speed=0.0157x elapsed=0:01:22.98    \nframe=   41 fps=0.5 q=34.2 size=     256KiB time=00:00:01.30 bitrate=1613.5kbits/s speed=0.0156x elapsed=0:01:23.52    \nframe=   42 fps=0.5 q=27.9 size=     256KiB time=00:00:01.33 bitrate=1573.1kbits/s speed=0.0159x elapsed=0:01:24.06    \nframe=   42 fps=0.5 q=27.9 size=     256KiB time=00:00:01.33 bitrate=1573.1kbits/s speed=0.0158x elapsed=0:01:24.62    \nframe=   42 fps=0.5 q=27.9 size=     256KiB time=00:00:01.33 bitrate=1573.1kbits/s speed=0.0156x elapsed=0:01:25.21    \nframe=   42 fps=0.5 q=27.9 size=     256KiB time=00:00:01.33 bitrate=1573.1kbits/s speed=0.0155x elapsed=0:01:25.85    \nframe=   43 fps=0.5 q=31.1 size=     256KiB time=00:00:01.36 bitrate=1534.8kbits/s speed=0.0158x elapsed=0:01:26.41    \nframe=   43 fps=0.5 q=31.1 size=     256KiB time=00:00:01.36 bitrate=1534.8kbits/s speed=0.0157x elapsed=0:01:26.96    \nframe=   43 fps=0.5 q=31.1 size=     256KiB time=00:00:01.36 bitrate=1534.8kbits/s speed=0.0156x elapsed=0:01:27.49    \nframe=   44 fps=0.5 q=34.5 size=     512KiB time=00:00:01.40 bitrate=2996.2kbits/s speed=0.0159x elapsed=0:01:28.03    \nframe=   44 fps=0.5 q=34.5 size=     512KiB time=00:00:01.40 bitrate=2996.2kbits/s speed=0.0158x elapsed=0:01:28.63    \nframe=   44 fps=0.5 q=34.5 size=     512KiB time=00:00:01.40 bitrate=2996.2kbits/s speed=0.0157x elapsed=0:01:29.19    \nframe=   44 fps=0.5 q=34.5 size=     512KiB time=00:00:01.40 bitrate=2996.2kbits/s speed=0.0156x elapsed=0:01:29.72    \nframe=   44 fps=0.5 q=34.5 size=     512KiB time=00:00:01.40 bitrate=2996.2kbits/s speed=0.0155x elapsed=0:01:30.25    \nframe=   44 fps=0.5 q=34.5 size=     512KiB time=00:00:01.40 bitrate=2996.2kbits/s speed=0.0154x elapsed=0:01:30.80    \nframe=   44 fps=0.5 q=34.5 size=     512KiB time=00:00:01.40 bitrate=2996.2kbits/s speed=0.0153x elapsed=0:01:31.37    \nframe=   44 fps=0.5 q=34.5 size=     512KiB time=00:00:01.40 bitrate=2996.2kbits/s speed=0.0152x elapsed=0:01:31.90    \nframe=   44 fps=0.5 q=34.5 size=     512KiB time=00:00:01.40 bitrate=2996.2kbits/s speed=0.0151x elapsed=0:01:32.45    \nframe=   44 fps=0.5 q=34.5 size=     512KiB time=00:00:01.40 bitrate=2996.2kbits/s speed=0.0151x elapsed=0:01:32.97    \nframe=   45 fps=0.5 q=33.6 size=     512KiB time=00:00:01.43 bitrate=2926.5kbits/s speed=0.0153x elapsed=0:01:33.49    \nframe=   45 fps=0.5 q=33.6 size=     512KiB time=00:00:01.43 bitrate=2926.5kbits/s speed=0.0152x elapsed=0:01:34.02    \nframe=   46 fps=0.5 q=33.8 size=     512KiB time=00:00:01.46 bitrate=2860.0kbits/s speed=0.0155x elapsed=0:01:34.54    \nframe=   46 fps=0.5 q=33.8 size=     512KiB time=00:00:01.46 bitrate=2860.0kbits/s speed=0.0154x elapsed=0:01:35.05    \nframe=   46 fps=0.5 q=33.8 size=     512KiB time=00:00:01.46 bitrate=2860.0kbits/s speed=0.0153x elapsed=0:01:35.58    \nframe=   47 fps=0.5 q=27.5 size=     512KiB time=00:00:01.50 bitrate=2796.4kbits/s speed=0.0156x elapsed=0:01:36.17    \nframe=   47 fps=0.5 q=27.5 size=     512KiB time=00:00:01.50 bitrate=2796.4kbits/s speed=0.0155x elapsed=0:01:36.69    \nframe=   47 fps=0.5 q=27.5 size=     512KiB time=00:00:01.50 bitrate=2796.4kbits/s speed=0.0154x elapsed=0:01:37.22    \nframe=   47 fps=0.5 q=27.5 size=     512KiB time=00:00:01.50 bitrate=2796.4kbits/s speed=0.0153x elapsed=0:01:37.76    \nframe=   47 fps=0.5 q=27.5 size=     512KiB time=00:00:01.50 bitrate=2796.4kbits/s speed=0.0153x elapsed=0:01:38.29    \nframe=   48 fps=0.5 q=32.0 size=     512KiB time=00:00:01.53 bitrate=2735.6kbits/s speed=0.0155x elapsed=0:01:38.81    \nframe=   48 fps=0.5 q=32.0 size=     512KiB time=00:00:01.53 bitrate=2735.6kbits/s speed=0.0154x elapsed=0:01:39.32    \nframe=   49 fps=0.5 q=34.5 size=     512KiB time=00:00:01.56 bitrate=2677.4kbits/s speed=0.0157x elapsed=0:01:39.86    \nframe=   49 fps=0.5 q=34.5 size=     512KiB time=00:00:01.56 bitrate=2677.4kbits/s speed=0.0156x elapsed=0:01:40.39    \nframe=   49 fps=0.5 q=34.5 size=     512KiB time=00:00:01.56 bitrate=2677.4kbits/s speed=0.0155x elapsed=0:01:40.92    \nframe=   49 fps=0.5 q=34.5 size=     512KiB time=00:00:01.56 bitrate=2677.4kbits/s speed=0.0154x elapsed=0:01:41.47    \nframe=   49 fps=0.5 q=34.5 size=     512KiB time=00:00:01.56 bitrate=2677.4kbits/s speed=0.0154x elapsed=0:01:42.01    \nframe=   49 fps=0.5 q=34.5 size=     512KiB time=00:00:01.56 bitrate=2677.4kbits/s speed=0.0153x elapsed=0:01:42.54    \nframe=   49 fps=0.5 q=34.5 size=     512KiB time=00:00:01.56 bitrate=2677.4kbits/s speed=0.0152x elapsed=0:01:43.06    \nframe=   50 fps=0.5 q=27.5 size=     512KiB time=00:00:01.60 bitrate=2621.7kbits/s speed=0.0154x elapsed=0:01:43.60    \nframe=   50 fps=0.5 q=27.5 size=     512KiB time=00:00:01.60 bitrate=2621.7kbits/s speed=0.0154x elapsed=0:01:44.11    \nframe=   51 fps=0.5 q=31.2 size=     512KiB time=00:00:01.63 bitrate=2568.2kbits/s speed=0.0156x elapsed=0:01:44.66    \nframe=   51 fps=0.5 q=31.2 size=     512KiB time=00:00:01.63 bitrate=2568.2kbits/s speed=0.0155x elapsed=0:01:45.20    \nframe=   51 fps=0.5 q=31.2 size=     512KiB time=00:00:01.63 bitrate=2568.2kbits/s speed=0.0154x elapsed=0:01:45.73    \nframe=   51 fps=0.5 q=31.2 size=     512KiB time=00:00:01.63 bitrate=2568.2kbits/s speed=0.0154x elapsed=0:01:46.27    \nframe=   51 fps=0.5 q=31.2 size=     512KiB time=00:00:01.63 bitrate=2568.2kbits/s speed=0.0153x elapsed=0:01:46.84    \nframe=   51 fps=0.5 q=31.2 size=     512KiB time=00:00:01.63 bitrate=2568.2kbits/s speed=0.0152x elapsed=0:01:47.42    \nframe=   51 fps=0.5 q=31.2 size=     512KiB time=00:00:01.63 bitrate=2568.2kbits/s speed=0.0151x elapsed=0:01:47.99    \nframe=   51 fps=0.5 q=31.2 size=     512KiB time=00:00:01.63 bitrate=2568.2kbits/s speed=0.0151x elapsed=0:01:48.52    \nframe=   52 fps=0.5 q=33.1 size=     512KiB time=00:00:01.66 bitrate=2516.8kbits/s speed=0.0153x elapsed=0:01:49.03    \nframe=   52 fps=0.5 q=33.1 size=     512KiB time=00:00:01.66 bitrate=2516.8kbits/s speed=0.0152x elapsed=0:01:49.56    \nframe=   52 fps=0.5 q=33.1 size=     512KiB time=00:00:01.66 bitrate=2516.8kbits/s speed=0.0151x elapsed=0:01:50.12    \nframe=   52 fps=0.5 q=33.1 size=     512KiB time=00:00:01.66 bitrate=2516.8kbits/s speed=0.0151x elapsed=0:01:50.70    \nframe=   52 fps=0.5 q=33.1 size=     512KiB time=00:00:01.66 bitrate=2516.8kbits/s speed=0.015x elapsed=0:01:51.22    \nframe=   53 fps=0.5 q=33.4 size=     512KiB time=00:00:01.70 bitrate=2467.4kbits/s speed=0.0152x elapsed=0:01:51.79    \nframe=   53 fps=0.5 q=33.4 size=     512KiB time=00:00:01.70 bitrate=2467.4kbits/s speed=0.0151x elapsed=0:01:52.31    \nframe=   53 fps=0.5 q=33.4 size=     512KiB time=00:00:01.70 bitrate=2467.4kbits/s speed=0.0151x elapsed=0:01:52.90    \nframe=   53 fps=0.5 q=33.4 size=     512KiB time=00:00:01.70 bitrate=2467.4kbits/s speed=0.015x elapsed=0:01:53.45    \nframe=   54 fps=0.5 q=27.4 size=     512KiB time=00:00:01.73 bitrate=2420.0kbits/s speed=0.0152x elapsed=0:01:53.97    \nframe=   54 fps=0.5 q=27.4 size=     512KiB time=00:00:01.73 bitrate=2420.0kbits/s speed=0.0151x elapsed=0:01:54.48    \nframe=   54 fps=0.5 q=27.4 size=     512KiB time=00:00:01.73 bitrate=2420.0kbits/s speed=0.0151x elapsed=0:01:55.05    \nframe=   54 fps=0.5 q=27.4 size=     512KiB time=00:00:01.73 bitrate=2420.0kbits/s speed=0.015x elapsed=0:01:55.68    \nframe=   54 fps=0.5 q=27.4 size=     512KiB time=00:00:01.73 bitrate=2420.0kbits/s speed=0.0149x elapsed=0:01:56.21    \nframe=   55 fps=0.5 q=30.2 size=     512KiB time=00:00:01.76 bitrate=2374.3kbits/s speed=0.0151x elapsed=0:01:56.75    \nframe=   55 fps=0.5 q=30.2 size=     512KiB time=00:00:01.76 bitrate=2374.3kbits/s speed=0.0151x elapsed=0:01:57.26    \nframe=   56 fps=0.5 q=33.2 size=     512KiB time=00:00:01.80 bitrate=2330.4kbits/s speed=0.0153x elapsed=0:01:57.84    \nframe=   56 fps=0.5 q=33.2 size=     512KiB time=00:00:01.80 bitrate=2330.4kbits/s speed=0.0152x elapsed=0:01:58.40    \nframe=   56 fps=0.5 q=33.2 size=     512KiB time=00:00:01.80 bitrate=2330.4kbits/s speed=0.0151x elapsed=0:01:58.92    \nframe=   56 fps=0.5 q=33.2 size=     512KiB time=00:00:01.80 bitrate=2330.4kbits/s speed=0.0151x elapsed=0:01:59.46    \nframe=   56 fps=0.5 q=33.2 size=     512KiB time=00:00:01.80 bitrate=2330.4kbits/s speed=0.015x elapsed=0:01:59.96    \nframe=   56 fps=0.5 q=33.2 size=     512KiB time=00:00:01.80 bitrate=2330.4kbits/s speed=0.0149x elapsed=0:02:00.51    \nframe=   56 fps=0.5 q=33.2 size=     512KiB time=00:00:01.80 bitrate=2330.4kbits/s speed=0.0149x elapsed=0:02:01.09    \nframe=   56 fps=0.5 q=33.2 size=     512KiB time=00:00:01.80 bitrate=2330.4kbits/s speed=0.0148x elapsed=0:02:01.67    \nframe=   56 fps=0.5 q=33.2 size=     512KiB time=00:00:01.80 bitrate=2330.4kbits/s speed=0.0147x elapsed=0:02:02.21    \nframe=   56 fps=0.5 q=33.2 size=     512KiB time=00:00:01.80 bitrate=2330.4kbits/s speed=0.0147x elapsed=0:02:02.73    \nframe=   56 fps=0.5 q=33.2 size=     512KiB time=00:00:01.80 bitrate=2330.4kbits/s speed=0.0146x elapsed=0:02:03.27    \nframe=   56 fps=0.5 q=33.2 size=     512KiB time=00:00:01.80 bitrate=2330.4kbits/s speed=0.0145x elapsed=0:02:03.85    \nframe=   56 fps=0.5 q=33.2 size=     512KiB time=00:00:01.80 bitrate=2330.4kbits/s speed=0.0145x elapsed=0:02:04.37    \nframe=   56 fps=0.4 q=33.2 size=     512KiB time=00:00:01.80 bitrate=2330.4kbits/s speed=0.0144x elapsed=0:02:04.89    \nframe=   56 fps=0.4 q=33.2 size=     512KiB time=00:00:01.80 bitrate=2330.4kbits/s speed=0.0143x elapsed=0:02:05.44    \nframe=   57 fps=0.5 q=33.2 size=     512KiB time=00:00:01.83 bitrate=2288.0kbits/s speed=0.0145x elapsed=0:02:06.01    \nframe=   57 fps=0.5 q=33.2 size=     512KiB time=00:00:01.83 bitrate=2288.0kbits/s speed=0.0145x elapsed=0:02:06.54    \nframe=   57 fps=0.4 q=33.2 size=     512KiB time=00:00:01.83 bitrate=2288.0kbits/s speed=0.0144x elapsed=0:02:07.08    \nframe=   57 fps=0.4 q=33.2 size=     512KiB time=00:00:01.83 bitrate=2288.0kbits/s speed=0.0144x elapsed=0:02:07.64    \nframe=   58 fps=0.5 q=33.7 size=     512KiB time=00:00:01.86 bitrate=2247.1kbits/s speed=0.0146x elapsed=0:02:08.20    \nframe=   58 fps=0.5 q=33.7 size=     512KiB time=00:00:01.86 bitrate=2247.1kbits/s speed=0.0145x elapsed=0:02:08.81    \nframe=   58 fps=0.4 q=33.7 size=     512KiB time=00:00:01.86 bitrate=2247.1kbits/s speed=0.0144x elapsed=0:02:09.34    \nframe=   58 fps=0.4 q=33.7 size=     512KiB time=00:00:01.86 bitrate=2247.1kbits/s speed=0.0144x elapsed=0:02:09.90    \nframe=   58 fps=0.4 q=33.7 size=     512KiB time=00:00:01.86 bitrate=2247.1kbits/s speed=0.0143x elapsed=0:02:10.48    \nframe=   58 fps=0.4 q=33.7 size=     512KiB time=00:00:01.86 bitrate=2247.1kbits/s speed=0.0142x elapsed=0:02:11.00    \nframe=   60 fps=0.5 q=31.1 size=     512KiB time=00:00:01.93 bitrate=2169.7kbits/s speed=0.0147x elapsed=0:02:11.57    \nframe=   60 fps=0.5 q=31.1 size=     512KiB time=00:00:01.93 bitrate=2169.7kbits/s speed=0.0146x elapsed=0:02:12.12    \nframe=   60 fps=0.5 q=31.1 size=     512KiB time=00:00:01.93 bitrate=2169.7kbits/s speed=0.0146x elapsed=0:02:12.71    \nframe=   60 fps=0.5 q=31.1 size=     512KiB time=00:00:01.93 bitrate=2169.7kbits/s speed=0.0145x elapsed=0:02:13.29    \nframe=   61 fps=0.5 q=34.3 size=     512KiB time=00:00:01.96 bitrate=2132.9kbits/s speed=0.0147x elapsed=0:02:13.84    \nframe=   61 fps=0.5 q=34.3 size=     512KiB time=00:00:01.96 bitrate=2132.9kbits/s speed=0.0146x elapsed=0:02:14.43    \nframe=   61 fps=0.5 q=34.3 size=     512KiB time=00:00:01.96 bitrate=2132.9kbits/s speed=0.0146x elapsed=0:02:14.98    \nframe=   61 fps=0.5 q=34.3 size=     512KiB time=00:00:01.96 bitrate=2132.9kbits/s speed=0.0145x elapsed=0:02:15.50    \nframe=   61 fps=0.4 q=34.3 size=     512KiB time=00:00:01.96 bitrate=2132.9kbits/s speed=0.0145x elapsed=0:02:16.06    \nframe=   61 fps=0.4 q=34.3 size=     512KiB time=00:00:01.96 bitrate=2132.9kbits/s speed=0.0144x elapsed=0:02:16.58    \nframe=   61 fps=0.4 q=34.3 size=     512KiB time=00:00:01.96 bitrate=2132.9kbits/s speed=0.0143x elapsed=0:02:17.11    \nframe=   61 fps=0.4 q=34.3 size=     512KiB time=00:00:01.96 bitrate=2132.9kbits/s speed=0.0143x elapsed=0:02:17.66    \nframe=   61 fps=0.4 q=34.3 size=     512KiB time=00:00:01.96 bitrate=2132.9kbits/s speed=0.0142x elapsed=0:02:18.17    \nframe=   62 fps=0.4 q=34.3 size=     512KiB time=00:00:02.00 bitrate=2097.3kbits/s speed=0.0144x elapsed=0:02:18.69    \nframe=   62 fps=0.4 q=34.3 size=     512KiB time=00:00:02.00 bitrate=2097.3kbits/s speed=0.0144x elapsed=0:02:19.23    \nframe=   63 fps=0.5 q=27.4 size=     512KiB time=00:00:02.03 bitrate=2062.9kbits/s speed=0.0145x elapsed=0:02:19.75    \nframe=   63 fps=0.4 q=27.4 size=     512KiB time=00:00:02.03 bitrate=2062.9kbits/s speed=0.0145x elapsed=0:02:20.29    \nframe=   64 fps=0.5 q=31.3 size=     512KiB time=00:00:02.06 bitrate=2029.7kbits/s speed=0.0147x elapsed=0:02:20.84    \nframe=   64 fps=0.5 q=31.3 size=     512KiB time=00:00:02.06 bitrate=2029.7kbits/s speed=0.0146x elapsed=0:02:21.36    \nframe=   64 fps=0.5 q=31.3 size=     512KiB time=00:00:02.06 bitrate=2029.7kbits/s speed=0.0146x elapsed=0:02:21.88    \nframe=   64 fps=0.4 q=31.3 size=     512KiB time=00:00:02.06 bitrate=2029.7kbits/s speed=0.0145x elapsed=0:02:22.40    \nframe=   64 fps=0.4 q=31.3 size=     512KiB time=00:00:02.06 bitrate=2029.7kbits/s speed=0.0145x elapsed=0:02:22.94    \nframe=   64 fps=0.4 q=31.3 size=     512KiB time=00:00:02.06 bitrate=2029.7kbits/s speed=0.0144x elapsed=0:02:23.46    \nframe=   65 fps=0.5 q=34.3 size=     512KiB time=00:00:02.10 bitrate=1997.5kbits/s speed=0.0146x elapsed=0:02:24.00    \nframe=   65 fps=0.4 q=34.3 size=     512KiB time=00:00:02.10 bitrate=1997.5kbits/s speed=0.0145x elapsed=0:02:24.53    \nframe=   65 fps=0.4 q=34.3 size=     512KiB time=00:00:02.10 bitrate=1997.5kbits/s speed=0.0145x elapsed=0:02:25.05    \nframe=   66 fps=0.5 q=34.2 size=     512KiB time=00:00:02.13 bitrate=1966.2kbits/s speed=0.0147x elapsed=0:02:25.58    \nframe=   66 fps=0.5 q=34.2 size=     512KiB time=00:00:02.13 bitrate=1966.2kbits/s speed=0.0146x elapsed=0:02:26.10    \nframe=   66 fps=0.5 q=34.2 size=     512KiB time=00:00:02.13 bitrate=1966.2kbits/s speed=0.0145x elapsed=0:02:26.62    \nframe=   67 fps=0.5 q=27.3 size=     512KiB time=00:00:02.16 bitrate=1936.0kbits/s speed=0.0147x elapsed=0:02:27.16    \nframe=   67 fps=0.5 q=27.3 size=     512KiB time=00:00:02.16 bitrate=1936.0kbits/s speed=0.0147x elapsed=0:02:27.69    \nframe=   67 fps=0.5 q=27.3 size=     512KiB time=00:00:02.16 bitrate=1936.0kbits/s speed=0.0146x elapsed=0:02:28.23    \nframe=   67 fps=0.5 q=27.3 size=     512KiB time=00:00:02.16 bitrate=1936.0kbits/s speed=0.0146x elapsed=0:02:28.83    \nframe=   67 fps=0.4 q=27.3 size=     512KiB time=00:00:02.16 bitrate=1936.0kbits/s speed=0.0145x elapsed=0:02:29.46    \nframe=   67 fps=0.4 q=27.3 size=     512KiB time=00:00:02.16 bitrate=1936.0kbits/s speed=0.0144x elapsed=0:02:30.02    \nframe=   67 fps=0.4 q=27.3 size=     512KiB time=00:00:02.16 bitrate=1936.0kbits/s speed=0.0144x elapsed=0:02:30.61    \nframe=   67 fps=0.4 q=27.3 size=     512KiB time=00:00:02.16 bitrate=1936.0kbits/s speed=0.0143x elapsed=0:02:31.18    \nframe=   68 fps=0.4 q=31.4 size=     768KiB time=00:00:02.20 bitrate=2859.9kbits/s speed=0.0145x elapsed=0:02:31.74    \nframe=   68 fps=0.4 q=31.4 size=     768KiB time=00:00:02.20 bitrate=2859.9kbits/s speed=0.0144x elapsed=0:02:32.26    \nframe=   68 fps=0.4 q=31.4 size=     768KiB time=00:00:02.20 bitrate=2859.9kbits/s speed=0.0144x elapsed=0:02:32.77    \nframe=   69 fps=0.5 q=34.2 size=     768KiB time=00:00:02.23 bitrate=2817.2kbits/s speed=0.0146x elapsed=0:02:33.32    \nframe=   69 fps=0.4 q=34.2 size=     768KiB time=00:00:02.23 bitrate=2817.2kbits/s speed=0.0145x elapsed=0:02:33.93    \nframe=   69 fps=0.4 q=34.2 size=     768KiB time=00:00:02.23 bitrate=2817.2kbits/s speed=0.0145x elapsed=0:02:34.47    \nframe=   69 fps=0.4 q=34.2 size=     768KiB time=00:00:02.23 bitrate=2817.2kbits/s speed=0.0144x elapsed=0:02:35.01    \nframe=   69 fps=0.4 q=34.2 size=     768KiB time=00:00:02.23 bitrate=2817.2kbits/s speed=0.0144x elapsed=0:02:35.55    \nframe=   69 fps=0.4 q=34.2 size=     768KiB time=00:00:02.23 bitrate=2817.2kbits/s speed=0.0143x elapsed=0:02:36.10    \nframe=   69 fps=0.4 q=34.2 size=     768KiB time=00:00:02.23 bitrate=2817.2kbits/s speed=0.0143x elapsed=0:02:36.65    \nframe=   69 fps=0.4 q=34.2 size=     768KiB time=00:00:02.23 bitrate=2817.2kbits/s speed=0.0142x elapsed=0:02:37.20    \nframe=   69 fps=0.4 q=34.2 size=     768KiB time=00:00:02.23 bitrate=2817.2kbits/s speed=0.0142x elapsed=0:02:37.72    \nframe=   69 fps=0.4 q=34.2 size=     768KiB time=00:00:02.23 bitrate=2817.2kbits/s speed=0.0141x elapsed=0:02:38.29    \nframe=   69 fps=0.4 q=34.2 size=     768KiB time=00:00:02.23 bitrate=2817.2kbits/s speed=0.0141x elapsed=0:02:38.85    \nframe=   69 fps=0.4 q=34.2 size=     768KiB time=00:00:02.23 bitrate=2817.2kbits/s speed=0.014x elapsed=0:02:39.43    \nframe=   69 fps=0.4 q=34.2 size=     768KiB time=00:00:02.23 bitrate=2817.2kbits/s speed=0.014x elapsed=0:02:39.98    \nframe=   70 fps=0.4 q=33.2 size=     768KiB time=00:00:02.26 bitrate=2775.8kbits/s speed=0.0141x elapsed=0:02:40.53    \nframe=   70 fps=0.4 q=33.2 size=     768KiB time=00:00:02.26 bitrate=2775.8kbits/s speed=0.0141x elapsed=0:02:41.12    \nframe=   70 fps=0.4 q=33.2 size=     768KiB time=00:00:02.26 bitrate=2775.8kbits/s speed=0.014x elapsed=0:02:41.70    \nframe=   70 fps=0.4 q=33.2 size=     768KiB time=00:00:02.26 bitrate=2775.8kbits/s speed=0.014x elapsed=0:02:42.21    \nframe=   70 fps=0.4 q=33.2 size=     768KiB time=00:00:02.26 bitrate=2775.8kbits/s speed=0.0139x elapsed=0:02:42.75    \nframe=   71 fps=0.4 q=27.0 size=     768KiB time=00:00:02.30 bitrate=2735.6kbits/s speed=0.0141x elapsed=0:02:43.28    \nframe=   71 fps=0.4 q=27.0 size=     768KiB time=00:00:02.30 bitrate=2735.6kbits/s speed=0.014x elapsed=0:02:43.83    \nframe=   71 fps=0.4 q=27.0 size=     768KiB time=00:00:02.30 bitrate=2735.6kbits/s speed=0.014x elapsed=0:02:44.35    \nframe=   71 fps=0.4 q=27.0 size=     768KiB time=00:00:02.30 bitrate=2735.6kbits/s speed=0.0139x elapsed=0:02:44.89    \nframe=   71 fps=0.4 q=27.0 size=     768KiB time=00:00:02.30 bitrate=2735.6kbits/s speed=0.0139x elapsed=0:02:45.47    \nframe=   71 fps=0.4 q=27.0 size=     768KiB time=00:00:02.30 bitrate=2735.6kbits/s speed=0.0139x elapsed=0:02:46.00    \nframe=   71 fps=0.4 q=27.0 size=     768KiB time=00:00:02.30 bitrate=2735.6kbits/s speed=0.0138x elapsed=0:02:46.56    \nframe=   71 fps=0.4 q=27.0 size=     768KiB time=00:00:02.30 bitrate=2735.6kbits/s speed=0.0138x elapsed=0:02:47.14    \nframe=   71 fps=0.4 q=27.0 size=     768KiB time=00:00:02.30 bitrate=2735.6kbits/s speed=0.0137x elapsed=0:02:47.71    \nframe=   71 fps=0.4 q=27.0 size=     768KiB time=00:00:02.30 bitrate=2735.6kbits/s speed=0.0137x elapsed=0:02:48.26    \nframe=   71 fps=0.4 q=27.0 size=     768KiB time=00:00:02.30 bitrate=2735.6kbits/s speed=0.0136x elapsed=0:02:48.82    \nframe=   71 fps=0.4 q=27.0 size=     768KiB time=00:00:02.30 bitrate=2735.6kbits/s speed=0.0136x elapsed=0:02:49.39    \nframe=   71 fps=0.4 q=27.0 size=     768KiB time=00:00:02.30 bitrate=2735.6kbits/s speed=0.0135x elapsed=0:02:49.94    \nframe=   71 fps=0.4 q=27.0 size=     768KiB time=00:00:02.30 bitrate=2735.6kbits/s speed=0.0135x elapsed=0:02:50.49    \nframe=   71 fps=0.4 q=27.0 size=     768KiB time=00:00:02.30 bitrate=2735.6kbits/s speed=0.0134x elapsed=0:02:51.02    \nframe=   71 fps=0.4 q=27.0 size=     768KiB time=00:00:02.30 bitrate=2735.6kbits/s speed=0.0134x elapsed=0:02:51.56    \nframe=   72 fps=0.4 q=30.9 size=     768KiB time=00:00:02.33 bitrate=2696.5kbits/s speed=0.0136x elapsed=0:02:52.09    \nframe=   72 fps=0.4 q=30.9 size=     768KiB time=00:00:02.33 bitrate=2696.5kbits/s speed=0.0135x elapsed=0:02:52.61    \nframe=   72 fps=0.4 q=30.9 size=     768KiB time=00:00:02.33 bitrate=2696.5kbits/s speed=0.0135x elapsed=0:02:53.14    \nframe=   73 fps=0.4 q=33.5 size=     768KiB time=00:00:02.36 bitrate=2658.5kbits/s speed=0.0136x elapsed=0:02:53.76    \nframe=   73 fps=0.4 q=33.5 size=     768KiB time=00:00:02.36 bitrate=2658.5kbits/s speed=0.0136x elapsed=0:02:54.32    \nframe=   73 fps=0.4 q=33.5 size=     768KiB time=00:00:02.36 bitrate=2658.5kbits/s speed=0.0135x elapsed=0:02:54.94    \nframe=   74 fps=0.4 q=32.9 size=     768KiB time=00:00:02.40 bitrate=2621.6kbits/s speed=0.0137x elapsed=0:02:55.54    \nframe=   74 fps=0.4 q=32.9 size=     768KiB time=00:00:02.40 bitrate=2621.6kbits/s speed=0.0136x elapsed=0:02:56.17    \nframe=   74 fps=0.4 q=32.9 size=     768KiB time=00:00:02.40 bitrate=2621.6kbits/s speed=0.0136x elapsed=0:02:56.87    \nframe=   74 fps=0.4 q=32.9 size=     768KiB time=00:00:02.40 bitrate=2621.6kbits/s speed=0.0135x elapsed=0:02:57.47    \nframe=   74 fps=0.4 q=32.9 size=     768KiB time=00:00:02.40 bitrate=2621.6kbits/s speed=0.0135x elapsed=0:02:58.05    \nframe=   74 fps=0.4 q=32.9 size=     768KiB time=00:00:02.40 bitrate=2621.6kbits/s speed=0.0134x elapsed=0:02:58.70    \nframe=   74 fps=0.4 q=32.9 size=     768KiB time=00:00:02.40 bitrate=2621.6kbits/s speed=0.0134x elapsed=0:02:59.27    \nframe=   74 fps=0.4 q=32.9 size=     768KiB time=00:00:02.40 bitrate=2621.6kbits/s speed=0.0133x elapsed=0:02:59.88    \nframe=   74 fps=0.4 q=32.9 size=     768KiB time=00:00:02.40 bitrate=2621.6kbits/s speed=0.0133x elapsed=0:03:00.46    \nframe=   74 fps=0.4 q=32.9 size=     768KiB time=00:00:02.40 bitrate=2621.6kbits/s speed=0.0133x elapsed=0:03:01.05    \nframe=   74 fps=0.4 q=32.9 size=     768KiB time=00:00:02.40 bitrate=2621.6kbits/s speed=0.0132x elapsed=0:03:01.62    \nframe=   75 fps=0.4 q=26.9 size=     768KiB time=00:00:02.43 bitrate=2585.7kbits/s speed=0.0134x elapsed=0:03:02.19    \nframe=   75 fps=0.4 q=26.9 size=     768KiB time=00:00:02.43 bitrate=2585.7kbits/s speed=0.0133x elapsed=0:03:02.72    \nframe=   75 fps=0.4 q=26.9 size=     768KiB time=00:00:02.43 bitrate=2585.7kbits/s speed=0.0133x elapsed=0:03:03.29    \nframe=   75 fps=0.4 q=26.9 size=     768KiB time=00:00:02.43 bitrate=2585.7kbits/s speed=0.0132x elapsed=0:03:03.83    \nframe=   75 fps=0.4 q=26.9 size=     768KiB time=00:00:02.43 bitrate=2585.7kbits/s speed=0.0132x elapsed=0:03:04.38    \nframe=   75 fps=0.4 q=26.9 size=     768KiB time=00:00:02.43 bitrate=2585.7kbits/s speed=0.0132x elapsed=0:03:04.92    \nframe=   76 fps=0.4 q=30.7 size=     768KiB time=00:00:02.46 bitrate=2550.7kbits/s speed=0.0133x elapsed=0:03:05.45    \nframe=   76 fps=0.4 q=30.7 size=     768KiB time=00:00:02.46 bitrate=2550.7kbits/s speed=0.0133x elapsed=0:03:05.99    \nframe=   77 fps=0.4 q=34.1 size=     768KiB time=00:00:02.50 bitrate=2516.7kbits/s speed=0.0134x elapsed=0:03:06.51    \nframe=   77 fps=0.4 q=34.1 size=     768KiB time=00:00:02.50 bitrate=2516.7kbits/s speed=0.0134x elapsed=0:03:07.04    \nframe=   77 fps=0.4 q=34.1 size=     768KiB time=00:00:02.50 bitrate=2516.7kbits/s speed=0.0133x elapsed=0:03:07.57    \nframe=   78 fps=0.4 q=34.2 size=     768KiB time=00:00:02.53 bitrate=2483.6kbits/s speed=0.0135x elapsed=0:03:08.10    \nframe=   79 fps=0.4 q=27.1 size=     768KiB time=00:00:02.56 bitrate=2451.4kbits/s speed=0.0136x elapsed=0:03:08.61    \nframe=   79 fps=0.4 q=27.1 size=     768KiB time=00:00:02.56 bitrate=2451.4kbits/s speed=0.0136x elapsed=0:03:09.15    \nframe=   79 fps=0.4 q=27.1 size=     768KiB time=00:00:02.56 bitrate=2451.4kbits/s speed=0.0135x elapsed=0:03:09.76    \nframe=   79 fps=0.4 q=27.1 size=     768KiB time=00:00:02.56 bitrate=2451.4kbits/s speed=0.0135x elapsed=0:03:10.29    \nframe=   80 fps=0.4 q=30.9 size=     768KiB time=00:00:02.60 bitrate=2419.9kbits/s speed=0.0136x elapsed=0:03:10.81    \nframe=   80 fps=0.4 q=30.9 size=     768KiB time=00:00:02.60 bitrate=2419.9kbits/s speed=0.0136x elapsed=0:03:11.34    \nframe=   81 fps=0.4 q=34.5 size=     768KiB time=00:00:02.63 bitrate=2389.3kbits/s speed=0.0137x elapsed=0:03:11.87    \nframe=   82 fps=0.4 q=33.9 size=     768KiB time=00:00:02.66 bitrate=2359.4kbits/s speed=0.0139x elapsed=0:03:12.39    \nframe=   82 fps=0.4 q=33.9 size=     768KiB time=00:00:02.66 bitrate=2359.4kbits/s speed=0.0138x elapsed=0:03:12.94    \nframe=   82 fps=0.4 q=33.9 size=     768KiB time=00:00:02.66 bitrate=2359.4kbits/s speed=0.0138x elapsed=0:03:13.49    \nframe=   83 fps=0.4 q=27.4 size=     768KiB time=00:00:02.70 bitrate=2330.3kbits/s speed=0.0139x elapsed=0:03:14.02    \nframe=   83 fps=0.4 q=27.4 size=     768KiB time=00:00:02.70 bitrate=2330.3kbits/s speed=0.0139x elapsed=0:03:14.54    \nframe=   84 fps=0.4 q=30.6 size=     768KiB time=00:00:02.73 bitrate=2301.9kbits/s speed=0.014x elapsed=0:03:15.08    \nframe=   84 fps=0.4 q=30.6 size=     768KiB time=00:00:02.73 bitrate=2301.9kbits/s speed=0.014x elapsed=0:03:15.59    \nframe=   84 fps=0.4 q=30.6 size=     768KiB time=00:00:02.73 bitrate=2301.9kbits/s speed=0.0139x elapsed=0:03:16.11    \nframe=   85 fps=0.4 q=34.6 size=     768KiB time=00:00:02.76 bitrate=2274.1kbits/s speed=0.0141x elapsed=0:03:16.64    \nframe=   85 fps=0.4 q=34.6 size=     768KiB time=00:00:02.76 bitrate=2274.1kbits/s speed=0.014x elapsed=0:03:17.19    \nframe=   85 fps=0.4 q=34.6 size=     768KiB time=00:00:02.76 bitrate=2274.1kbits/s speed=0.014x elapsed=0:03:17.72    \nframe=   85 fps=0.4 q=34.6 size=     768KiB time=00:00:02.76 bitrate=2274.1kbits/s speed=0.014x elapsed=0:03:18.25    \nframe=   86 fps=0.4 q=34.1 size=     768KiB time=00:00:02.80 bitrate=2247.1kbits/s speed=0.0141x elapsed=0:03:18.76    \nframe=   86 fps=0.4 q=34.1 size=     768KiB time=00:00:02.80 bitrate=2247.1kbits/s speed=0.014x elapsed=0:03:19.29    \nframe=   86 fps=0.4 q=34.1 size=     768KiB time=00:00:02.80 bitrate=2247.1kbits/s speed=0.014x elapsed=0:03:19.82    \nframe=   86 fps=0.4 q=34.1 size=     768KiB time=00:00:02.80 bitrate=2247.1kbits/s speed=0.014x elapsed=0:03:20.34    \nframe=   87 fps=0.4 q=26.9 size=     768KiB time=00:00:02.83 bitrate=2220.6kbits/s speed=0.0141x elapsed=0:03:20.87    \nframe=   87 fps=0.4 q=26.9 size=     768KiB time=00:00:02.83 bitrate=2220.6kbits/s speed=0.0141x elapsed=0:03:21.39    \nframe=   87 fps=0.4 q=26.9 size=     768KiB time=00:00:02.83 bitrate=2220.6kbits/s speed=0.014x elapsed=0:03:21.93    \nframe=   88 fps=0.4 q=34.6 size=    1024KiB time=00:00:02.86 bitrate=2926.4kbits/s speed=0.0142x elapsed=0:03:22.48    \nframe=   88 fps=0.4 q=34.6 size=    1024KiB time=00:00:02.86 bitrate=2926.4kbits/s speed=0.0141x elapsed=0:03:23.00    \nframe=   88 fps=0.4 q=34.6 size=    1024KiB time=00:00:02.86 bitrate=2926.4kbits/s speed=0.0141x elapsed=0:03:23.53    \nframe=   88 fps=0.4 q=34.6 size=    1024KiB time=00:00:02.86 bitrate=2926.4kbits/s speed=0.014x elapsed=0:03:24.07    \nframe=   88 fps=0.4 q=34.6 size=    1024KiB time=00:00:02.86 bitrate=2926.4kbits/s speed=0.014x elapsed=0:03:24.62    \nframe=   89 fps=0.4 q=27.0 size=    1024KiB time=00:00:02.90 bitrate=2892.7kbits/s speed=0.0141x elapsed=0:03:25.13    \nframe=   89 fps=0.4 q=27.0 size=    1024KiB time=00:00:02.90 bitrate=2892.7kbits/s speed=0.0141x elapsed=0:03:25.65    \nframe=   89 fps=0.4 q=27.0 size=    1024KiB time=00:00:02.90 bitrate=2892.7kbits/s speed=0.0141x elapsed=0:03:26.19    \nframe=   90 fps=0.4 q=29.0 size=    1024KiB time=00:00:02.93 bitrate=2859.9kbits/s speed=0.0142x elapsed=0:03:26.73    \nframe=   91 fps=0.4 q=34.5 size=    1024KiB time=00:00:02.96 bitrate=2827.7kbits/s speed=0.0143x elapsed=0:03:27.26    \nframe=   91 fps=0.4 q=34.5 size=    1024KiB time=00:00:02.96 bitrate=2827.7kbits/s speed=0.0143x elapsed=0:03:27.79    \nframe=   91 fps=0.4 q=34.5 size=    1024KiB time=00:00:02.96 bitrate=2827.7kbits/s speed=0.0142x elapsed=0:03:28.34    \nframe=   91 fps=0.4 q=34.5 size=    1024KiB time=00:00:02.96 bitrate=2827.7kbits/s speed=0.0142x elapsed=0:03:28.87    \nframe=   92 fps=0.4 q=34.7 size=    1024KiB time=00:00:03.00 bitrate=2796.3kbits/s speed=0.0143x elapsed=0:03:29.39    \nframe=   92 fps=0.4 q=34.7 size=    1024KiB time=00:00:03.00 bitrate=2796.3kbits/s speed=0.0143x elapsed=0:03:29.92    \nframe=   93 fps=0.4 q=35.3 size=    1024KiB time=00:00:03.03 bitrate=2765.6kbits/s speed=0.0144x elapsed=0:03:30.44    \nframe=   93 fps=0.4 q=35.3 size=    1024KiB time=00:00:03.03 bitrate=2765.6kbits/s speed=0.0144x elapsed=0:03:30.96    \nframe=   93 fps=0.4 q=35.3 size=    1024KiB time=00:00:03.03 bitrate=2765.6kbits/s speed=0.0143x elapsed=0:03:31.50    \nframe=   94 fps=0.4 q=27.5 size=    1024KiB time=00:00:03.06 bitrate=2735.5kbits/s speed=0.0145x elapsed=0:03:32.03    \nframe=   94 fps=0.4 q=27.5 size=    1024KiB time=00:00:03.06 bitrate=2735.5kbits/s speed=0.0144x elapsed=0:03:32.55    \nframe=   94 fps=0.4 q=27.5 size=    1024KiB time=00:00:03.06 bitrate=2735.5kbits/s speed=0.0144x elapsed=0:03:33.07    \nframe=   94 fps=0.4 q=27.5 size=    1024KiB time=00:00:03.06 bitrate=2735.5kbits/s speed=0.0144x elapsed=0:03:33.60    \nframe=   95 fps=0.4 q=29.0 size=    1024KiB time=00:00:03.10 bitrate=2706.1kbits/s speed=0.0145x elapsed=0:03:34.13    \nframe=   95 fps=0.4 q=29.0 size=    1024KiB time=00:00:03.10 bitrate=2706.1kbits/s speed=0.0144x elapsed=0:03:34.65    \nframe=   96 fps=0.4 q=35.0 size=    1024KiB time=00:00:03.13 bitrate=2677.3kbits/s speed=0.0146x elapsed=0:03:35.19    \nframe=   96 fps=0.4 q=35.0 size=    1024KiB time=00:00:03.13 bitrate=2677.3kbits/s speed=0.0145x elapsed=0:03:35.71    \nframe=   97 fps=0.4 q=35.2 size=    1024KiB time=00:00:03.16 bitrate=2649.1kbits/s speed=0.0146x elapsed=0:03:36.24    \nframe=   97 fps=0.4 q=35.2 size=    1024KiB time=00:00:03.16 bitrate=2649.1kbits/s speed=0.0146x elapsed=0:03:36.78    \nframe=   98 fps=0.5 q=35.5 size=    1024KiB time=00:00:03.20 bitrate=2621.6kbits/s speed=0.0147x elapsed=0:03:37.32    \nframe=   98 fps=0.4 q=35.5 size=    1024KiB time=00:00:03.20 bitrate=2621.6kbits/s speed=0.0147x elapsed=0:03:37.85    \nframe=   98 fps=0.4 q=35.5 size=    1024KiB time=00:00:03.20 bitrate=2621.6kbits/s speed=0.0147x elapsed=0:03:38.38    \nframe=   98 fps=0.4 q=35.5 size=    1024KiB time=00:00:03.20 bitrate=2621.6kbits/s speed=0.0146x elapsed=0:03:38.91    \nframe=   99 fps=0.5 q=27.6 size=    1024KiB time=00:00:03.23 bitrate=2594.5kbits/s speed=0.0147x elapsed=0:03:39.44    \nframe=   99 fps=0.5 q=27.6 size=    1024KiB time=00:00:03.23 bitrate=2594.5kbits/s speed=0.0147x elapsed=0:03:39.97    \nframe=   99 fps=0.4 q=27.6 size=    1024KiB time=00:00:03.23 bitrate=2594.5kbits/s speed=0.0147x elapsed=0:03:40.54    \nframe=   99 fps=0.4 q=27.6 size=    1024KiB time=00:00:03.23 bitrate=2594.5kbits/s speed=0.0146x elapsed=0:03:41.12    \nframe=   99 fps=0.4 q=27.6 size=    1024KiB time=00:00:03.23 bitrate=2594.5kbits/s speed=0.0146x elapsed=0:03:41.69    \nframe=   99 fps=0.4 q=27.6 size=    1024KiB time=00:00:03.23 bitrate=2594.5kbits/s speed=0.0145x elapsed=0:03:42.33    \nframe=   99 fps=0.4 q=27.6 size=    1024KiB time=00:00:03.23 bitrate=2594.5kbits/s speed=0.0145x elapsed=0:03:42.89    \nframe=   99 fps=0.4 q=27.6 size=    1024KiB time=00:00:03.23 bitrate=2594.5kbits/s speed=0.0145x elapsed=0:03:43.43    \nframe=   99 fps=0.4 q=27.6 size=    1024KiB time=00:00:03.23 bitrate=2594.5kbits/s speed=0.0144x elapsed=0:03:43.97    \nframe=   99 fps=0.4 q=27.6 size=    1024KiB time=00:00:03.23 bitrate=2594.5kbits/s speed=0.0144x elapsed=0:03:44.53    \nframe=  100 fps=0.4 q=32.4 size=    1024KiB time=00:00:03.26 bitrate=2568.0kbits/s speed=0.0145x elapsed=0:03:45.10    \nframe=  100 fps=0.4 q=32.4 size=    1024KiB time=00:00:03.26 bitrate=2568.0kbits/s speed=0.0145x elapsed=0:03:45.72    \nframe=  100 fps=0.4 q=32.4 size=    1024KiB time=00:00:03.26 bitrate=2568.0kbits/s speed=0.0144x elapsed=0:03:46.35    \nframe=  100 fps=0.4 q=32.4 size=    1024KiB time=00:00:03.26 bitrate=2568.0kbits/s speed=0.0144x elapsed=0:03:46.94    \nframe=  100 fps=0.4 q=32.4 size=    1024KiB time=00:00:03.26 bitrate=2568.0kbits/s speed=0.0144x elapsed=0:03:47.64    \nframe=  100 fps=0.4 q=32.4 size=    1024KiB time=00:00:03.26 bitrate=2568.0kbits/s speed=0.0143x elapsed=0:03:48.27    \nframe=  100 fps=0.4 q=32.4 size=    1024KiB time=00:00:03.26 bitrate=2568.0kbits/s speed=0.0143x elapsed=0:03:48.89    \nframe=  101 fps=0.4 q=35.4 size=    1024KiB time=00:00:03.26 bitrate=2568.0kbits/s speed=0.0142x elapsed=0:03:49.47    \nframe=  101 fps=0.4 q=35.4 size=    1024KiB time=00:00:03.30 bitrate=2542.1kbits/s speed=0.0143x elapsed=0:03:50.08    \nframe=  101 fps=0.4 q=35.4 size=    1024KiB time=00:00:03.30 bitrate=2542.1kbits/s speed=0.0143x elapsed=0:03:50.68    \nframe=  101 fps=0.4 q=35.4 size=    1024KiB time=00:00:03.30 bitrate=2542.1kbits/s speed=0.0143x elapsed=0:03:51.26    \nframe=  102 fps=0.4 q=35.5 size=    1024KiB time=00:00:03.33 bitrate=2516.7kbits/s speed=0.0144x elapsed=0:03:51.81    \nframe=  102 fps=0.4 q=35.5 size=    1024KiB time=00:00:03.33 bitrate=2516.7kbits/s speed=0.0143x elapsed=0:03:52.37    \nframe=  104 fps=0.4 q=32.5 size=    1024KiB time=00:00:03.40 bitrate=2467.3kbits/s speed=0.0146x elapsed=0:03:52.95    \nframe=  104 fps=0.4 q=32.5 size=    1024KiB time=00:00:03.40 bitrate=2467.3kbits/s speed=0.0146x elapsed=0:03:53.52    \nframe=  104 fps=0.4 q=32.5 size=    1024KiB time=00:00:03.40 bitrate=2467.3kbits/s speed=0.0145x elapsed=0:03:54.08    \nframe=  105 fps=0.4 q=35.4 size=    1024KiB time=00:00:03.43 bitrate=2443.4kbits/s speed=0.0146x elapsed=0:03:54.65    \nframe=  105 fps=0.4 q=35.4 size=    1024KiB time=00:00:03.43 bitrate=2443.4kbits/s speed=0.0146x elapsed=0:03:55.16    \nframe=  105 fps=0.4 q=35.4 size=    1024KiB time=00:00:03.43 bitrate=2443.4kbits/s speed=0.0146x elapsed=0:03:55.69    \nframe=  105 fps=0.4 q=35.4 size=    1024KiB time=00:00:03.43 bitrate=2443.4kbits/s speed=0.0145x elapsed=0:03:56.23    \nframe=  106 fps=0.4 q=35.7 size=    1024KiB time=00:00:03.46 bitrate=2419.9kbits/s speed=0.0146x elapsed=0:03:56.77    \nframe=  106 fps=0.4 q=35.7 size=    1024KiB time=00:00:03.46 bitrate=2419.9kbits/s speed=0.0146x elapsed=0:03:57.34    \nframe=  106 fps=0.4 q=35.7 size=    1024KiB time=00:00:03.46 bitrate=2419.9kbits/s speed=0.0146x elapsed=0:03:57.87    \nframe=  106 fps=0.4 q=35.7 size=    1024KiB time=00:00:03.46 bitrate=2419.9kbits/s speed=0.0145x elapsed=0:03:58.43    \nframe=  107 fps=0.4 q=27.9 size=    1024KiB time=00:00:03.50 bitrate=2396.8kbits/s speed=0.0146x elapsed=0:03:58.98    \nframe=  107 fps=0.4 q=27.9 size=    1024KiB time=00:00:03.50 bitrate=2396.8kbits/s speed=0.0146x elapsed=0:03:59.52    \nframe=  108 fps=0.4 q=32.7 size=    1280KiB time=00:00:03.53 bitrate=2967.8kbits/s speed=0.0147x elapsed=0:04:00.04    \nframe=  108 fps=0.4 q=32.7 size=    1280KiB time=00:00:03.53 bitrate=2967.8kbits/s speed=0.0147x elapsed=0:04:00.57    \nframe=  109 fps=0.5 q=35.3 size=    1280KiB time=00:00:03.56 bitrate=2940.0kbits/s speed=0.0148x elapsed=0:04:01.10    \nframe=  109 fps=0.5 q=35.3 size=    1280KiB time=00:00:03.56 bitrate=2940.0kbits/s speed=0.0148x elapsed=0:04:01.63    \nframe=  109 fps=0.5 q=35.3 size=    1280KiB time=00:00:03.56 bitrate=2940.0kbits/s speed=0.0147x elapsed=0:04:02.17    \nframe=  109 fps=0.4 q=35.3 size=    1280KiB time=00:00:03.56 bitrate=2940.0kbits/s speed=0.0147x elapsed=0:04:02.69    \nframe=  110 fps=0.5 q=28.0 size=    1280KiB time=00:00:03.60 bitrate=2912.8kbits/s speed=0.0148x elapsed=0:04:03.23    \nframe=  111 fps=0.5 q=32.8 size=    1280KiB time=00:00:03.63 bitrate=2886.1kbits/s speed=0.0149x elapsed=0:04:03.76    \nframe=  111 fps=0.5 q=32.8 size=    1280KiB time=00:00:03.63 bitrate=2886.1kbits/s speed=0.0149x elapsed=0:04:04.26    \nframe=  112 fps=0.5 q=35.9 size=    1280KiB time=00:00:03.66 bitrate=2859.8kbits/s speed=0.015x elapsed=0:04:04.79    \nframe=  112 fps=0.5 q=35.9 size=    1280KiB time=00:00:03.66 bitrate=2859.8kbits/s speed=0.0149x elapsed=0:04:05.32    \nframe=  112 fps=0.5 q=35.9 size=    1280KiB time=00:00:03.66 bitrate=2859.8kbits/s speed=0.0149x elapsed=0:04:05.84    \nframe=  113 fps=0.5 q=36.4 size=    1280KiB time=00:00:03.70 bitrate=2834.1kbits/s speed=0.015x elapsed=0:04:06.36    \nframe=  113 fps=0.5 q=36.4 size=    1280KiB time=00:00:03.70 bitrate=2834.1kbits/s speed=0.015x elapsed=0:04:06.89    \nframe=  113 fps=0.5 q=36.4 size=    1280KiB time=00:00:03.70 bitrate=2834.1kbits/s speed=0.015x elapsed=0:04:07.44    \nframe=  113 fps=0.5 q=36.4 size=    1280KiB time=00:00:03.70 bitrate=2834.1kbits/s speed=0.0149x elapsed=0:04:08.00    \nframe=  113 fps=0.5 q=36.4 size=    1280KiB time=00:00:03.70 bitrate=2834.1kbits/s speed=0.0149x elapsed=0:04:08.52    \nframe=  114 fps=0.5 q=27.9 size=    1280KiB time=00:00:03.73 bitrate=2808.8kbits/s speed=0.015x elapsed=0:04:09.05    \nframe=  115 fps=0.5 q=33.4 size=    1280KiB time=00:00:03.76 bitrate=2783.9kbits/s speed=0.0151x elapsed=0:04:09.57    \nframe=  115 fps=0.5 q=33.4 size=    1280KiB time=00:00:03.76 bitrate=2783.9kbits/s speed=0.0151x elapsed=0:04:10.07    \nframe=  116 fps=0.5 q=36.1 size=    1280KiB time=00:00:03.80 bitrate=2759.5kbits/s speed=0.0152x elapsed=0:04:10.59    \nframe=  116 fps=0.5 q=36.1 size=    1280KiB time=00:00:03.80 bitrate=2759.5kbits/s speed=0.0151x elapsed=0:04:11.11    \nframe=  116 fps=0.5 q=36.1 size=    1280KiB time=00:00:03.80 bitrate=2759.5kbits/s speed=0.0151x elapsed=0:04:11.64    \nframe=  116 fps=0.5 q=36.1 size=    1280KiB time=00:00:03.80 bitrate=2759.5kbits/s speed=0.0151x elapsed=0:04:12.19    \nframe=  117 fps=0.5 q=36.3 size=    1280KiB time=00:00:03.83 bitrate=2735.5kbits/s speed=0.0152x elapsed=0:04:12.71    \nframe=  117 fps=0.5 q=36.3 size=    1280KiB time=00:00:03.83 bitrate=2735.5kbits/s speed=0.0151x elapsed=0:04:13.22    \nframe=  117 fps=0.5 q=36.3 size=    1280KiB time=00:00:03.83 bitrate=2735.5kbits/s speed=0.0151x elapsed=0:04:13.73    \nframe=  118 fps=0.5 q=28.1 size=    1280KiB time=00:00:03.86 bitrate=2711.9kbits/s speed=0.0152x elapsed=0:04:14.29    \nframe=  118 fps=0.5 q=28.1 size=    1280KiB time=00:00:03.86 bitrate=2711.9kbits/s speed=0.0152x elapsed=0:04:14.81    \nframe=  119 fps=0.5 q=33.0 size=    1280KiB time=00:00:03.90 bitrate=2688.7kbits/s speed=0.0153x elapsed=0:04:15.32    \nframe=  119 fps=0.5 q=33.0 size=    1280KiB time=00:00:03.90 bitrate=2688.7kbits/s speed=0.0152x elapsed=0:04:15.86    \nframe=  120 fps=0.5 q=35.8 size=    1280KiB time=00:00:03.93 bitrate=2666.0kbits/s speed=0.0153x elapsed=0:04:16.41    \nframe=  120 fps=0.5 q=35.8 size=    1280KiB time=00:00:03.93 bitrate=2666.0kbits/s speed=0.0153x elapsed=0:04:16.93    \nframe=  121 fps=0.5 q=36.3 size=    1280KiB time=00:00:03.96 bitrate=2643.6kbits/s speed=0.0154x elapsed=0:04:17.46    \nframe=  121 fps=0.5 q=36.3 size=    1280KiB time=00:00:03.96 bitrate=2643.6kbits/s speed=0.0154x elapsed=0:04:17.98    \nframe=  121 fps=0.5 q=36.3 size=    1280KiB time=00:00:03.96 bitrate=2643.6kbits/s speed=0.0153x elapsed=0:04:18.51    \nframe=  121 fps=0.5 q=36.3 size=    1280KiB time=00:00:03.96 bitrate=2643.6kbits/s speed=0.0153x elapsed=0:04:19.02    \nframe=  121 fps=0.5 q=36.3 size=    1280KiB time=00:00:03.96 bitrate=2643.6kbits/s speed=0.0153x elapsed=0:04:19.54    \nframe=  121 fps=0.5 q=36.3 size=    1280KiB time=00:00:03.96 bitrate=2643.6kbits/s speed=0.0153x elapsed=0:04:20.07    \nframe=  122 fps=0.5 q=28.3 size=    1280KiB time=00:00:04.00 bitrate=2621.5kbits/s speed=0.0153x elapsed=0:04:20.59    \nframe=  123 fps=0.5 q=34.5 size=    1280KiB time=00:00:04.03 bitrate=2599.9kbits/s speed=0.0154x elapsed=0:04:21.12    \nframe=  123 fps=0.5 q=34.5 size=    1280KiB time=00:00:04.03 bitrate=2599.9kbits/s speed=0.0154x elapsed=0:04:21.64    \nframe=  124 fps=0.5 q=35.8 size=    1280KiB time=00:00:04.06 bitrate=2578.6kbits/s speed=0.0155x elapsed=0:04:22.16    \nframe=  124 fps=0.5 q=35.8 size=    1280KiB time=00:00:04.06 bitrate=2578.6kbits/s speed=0.0155x elapsed=0:04:22.72    \nframe=  124 fps=0.5 q=35.8 size=    1280KiB time=00:00:04.06 bitrate=2578.6kbits/s speed=0.0154x elapsed=0:04:23.28    \nframe=  124 fps=0.5 q=35.8 size=    1280KiB time=00:00:04.06 bitrate=2578.6kbits/s speed=0.0154x elapsed=0:04:23.82    \nframe=  125 fps=0.5 q=36.0 size=    1280KiB time=00:00:04.10 bitrate=2557.6kbits/s speed=0.0155x elapsed=0:04:24.35    \nframe=  125 fps=0.5 q=36.0 size=    1280KiB time=00:00:04.10 bitrate=2557.6kbits/s speed=0.0155x elapsed=0:04:24.87    \nframe=  126 fps=0.5 q=36.3 size=    1280KiB time=00:00:04.13 bitrate=2537.0kbits/s speed=0.0156x elapsed=0:04:25.39    \nframe=  126 fps=0.5 q=36.3 size=    1280KiB time=00:00:04.13 bitrate=2537.0kbits/s speed=0.0155x elapsed=0:04:25.92    \nframe=  126 fps=0.5 q=36.3 size=    1280KiB time=00:00:04.13 bitrate=2537.0kbits/s speed=0.0155x elapsed=0:04:26.47    \nframe=  126 fps=0.5 q=36.3 size=    1280KiB time=00:00:04.13 bitrate=2537.0kbits/s speed=0.0155x elapsed=0:04:27.01    \nframe=  126 fps=0.5 q=36.3 size=    1280KiB time=00:00:04.13 bitrate=2537.0kbits/s speed=0.0154x elapsed=0:04:27.54    \nframe=  127 fps=0.5 q=28.8 size=    1280KiB time=00:00:04.16 bitrate=2516.7kbits/s speed=0.0155x elapsed=0:04:28.07    \nframe=  128 fps=0.5 q=33.3 size=    1536KiB time=00:00:04.20 bitrate=2996.0kbits/s speed=0.0156x elapsed=0:04:28.60    \nframe=  128 fps=0.5 q=33.3 size=    1536KiB time=00:00:04.20 bitrate=2996.0kbits/s speed=0.0156x elapsed=0:04:29.12    \nframe=  128 fps=0.5 q=33.3 size=    1536KiB time=00:00:04.20 bitrate=2996.0kbits/s speed=0.0156x elapsed=0:04:29.65    \nframe=  128 fps=0.5 q=33.3 size=    1536KiB time=00:00:04.20 bitrate=2996.0kbits/s speed=0.0155x elapsed=0:04:30.18    \nframe=  129 fps=0.5 q=36.6 size=    1536KiB time=00:00:04.23 bitrate=2972.4kbits/s speed=0.0156x elapsed=0:04:30.73    \nframe=  129 fps=0.5 q=36.6 size=    1536KiB time=00:00:04.23 bitrate=2972.4kbits/s speed=0.0156x elapsed=0:04:31.26    \nframe=  130 fps=0.5 q=36.6 size=    1536KiB time=00:00:04.26 bitrate=2949.2kbits/s speed=0.0157x elapsed=0:04:31.79    \nframe=  130 fps=0.5 q=36.6 size=    1536KiB time=00:00:04.26 bitrate=2949.2kbits/s speed=0.0157x elapsed=0:04:32.31    \nframe=  131 fps=0.5 q=28.4 size=    1536KiB time=00:00:04.30 bitrate=2926.3kbits/s speed=0.0158x elapsed=0:04:32.83    \nframe=  131 fps=0.5 q=28.4 size=    1536KiB time=00:00:04.30 bitrate=2926.3kbits/s speed=0.0157x elapsed=0:04:33.34    \nframe=  131 fps=0.5 q=28.4 size=    1536KiB time=00:00:04.30 bitrate=2926.3kbits/s speed=0.0157x elapsed=0:04:33.88    \nframe=  131 fps=0.5 q=28.4 size=    1536KiB time=00:00:04.30 bitrate=2926.3kbits/s speed=0.0157x elapsed=0:04:34.42    \nframe=  132 fps=0.5 q=33.3 size=    1536KiB time=00:00:04.33 bitrate=2903.8kbits/s speed=0.0158x elapsed=0:04:34.94    \nframe=  132 fps=0.5 q=33.3 size=    1536KiB time=00:00:04.33 bitrate=2903.8kbits/s speed=0.0157x elapsed=0:04:35.46    \nframe=  132 fps=0.5 q=33.3 size=    1536KiB time=00:00:04.33 bitrate=2903.8kbits/s speed=0.0157x elapsed=0:04:35.98    \nframe=  133 fps=0.5 q=36.3 size=    1536KiB time=00:00:04.36 bitrate=2881.7kbits/s speed=0.0158x elapsed=0:04:36.52    \nframe=  133 fps=0.5 q=36.3 size=    1536KiB time=00:00:04.36 bitrate=2881.7kbits/s speed=0.0158x elapsed=0:04:37.03    \nframe=  134 fps=0.5 q=36.6 size=    1536KiB time=00:00:04.40 bitrate=2859.8kbits/s speed=0.0159x elapsed=0:04:37.58    \nframe=  134 fps=0.5 q=36.6 size=    1536KiB time=00:00:04.40 bitrate=2859.8kbits/s speed=0.0158x elapsed=0:04:38.11    \nframe=  134 fps=0.5 q=36.6 size=    1536KiB time=00:00:04.40 bitrate=2859.8kbits/s speed=0.0158x elapsed=0:04:38.64    \nframe=  134 fps=0.5 q=36.6 size=    1536KiB time=00:00:04.40 bitrate=2859.8kbits/s speed=0.0158x elapsed=0:04:39.16    \nframe=  134 fps=0.5 q=36.6 size=    1536KiB time=00:00:04.40 bitrate=2859.8kbits/s speed=0.0157x elapsed=0:04:39.69    \nframe=  134 fps=0.5 q=36.6 size=    1536KiB time=00:00:04.40 bitrate=2859.8kbits/s speed=0.0157x elapsed=0:04:40.20    \nframe=  135 fps=0.5 q=28.5 size=    1536KiB time=00:00:04.43 bitrate=2838.3kbits/s speed=0.0158x elapsed=0:04:40.72    \nframe=  135 fps=0.5 q=28.5 size=    1536KiB time=00:00:04.43 bitrate=2838.3kbits/s speed=0.0158x elapsed=0:04:41.26    \nframe=  136 fps=0.5 q=34.4 size=    1536KiB time=00:00:04.46 bitrate=2817.1kbits/s speed=0.0159x elapsed=0:04:41.77    \nframe=  136 fps=0.5 q=34.4 size=    1536KiB time=00:00:04.46 bitrate=2817.1kbits/s speed=0.0158x elapsed=0:04:42.31    \nframe=  137 fps=0.5 q=36.1 size=    1536KiB time=00:00:04.50 bitrate=2796.3kbits/s speed=0.0159x elapsed=0:04:42.84    \nframe=  138 fps=0.5 q=35.8 size=    1536KiB time=00:00:04.53 bitrate=2775.7kbits/s speed=0.016x elapsed=0:04:43.37    \nframe=  138 fps=0.5 q=35.8 size=    1536KiB time=00:00:04.53 bitrate=2775.7kbits/s speed=0.016x elapsed=0:04:43.88    \nframe=  139 fps=0.5 q=36.6 size=    1536KiB time=00:00:04.56 bitrate=2755.5kbits/s speed=0.0161x elapsed=0:04:44.44    \nframe=  139 fps=0.5 q=36.6 size=    1536KiB time=00:00:04.56 bitrate=2755.5kbits/s speed=0.016x elapsed=0:04:44.99    \nframe=  139 fps=0.5 q=36.6 size=    1536KiB time=00:00:04.56 bitrate=2755.5kbits/s speed=0.016x elapsed=0:04:45.53    \nframe=  139 fps=0.5 q=36.6 size=    1536KiB time=00:00:04.56 bitrate=2755.5kbits/s speed=0.016x elapsed=0:04:46.05    \nframe=  139 fps=0.5 q=36.6 size=    1536KiB time=00:00:04.56 bitrate=2755.5kbits/s speed=0.0159x elapsed=0:04:46.58    \nframe=  139 fps=0.5 q=36.6 size=    1536KiB time=00:00:04.56 bitrate=2755.5kbits/s speed=0.0159x elapsed=0:04:47.10    \nframe=  140 fps=0.5 q=29.1 size=    1536KiB time=00:00:04.60 bitrate=2735.5kbits/s speed=0.016x elapsed=0:04:47.64    \nframe=  140 fps=0.5 q=29.1 size=    1536KiB time=00:00:04.60 bitrate=2735.5kbits/s speed=0.016x elapsed=0:04:48.17    \nframe=  141 fps=0.5 q=33.4 size=    1536KiB time=00:00:04.63 bitrate=2715.8kbits/s speed=0.016x elapsed=0:04:48.70    \nframe=  141 fps=0.5 q=33.4 size=    1536KiB time=00:00:04.63 bitrate=2715.8kbits/s speed=0.016x elapsed=0:04:49.22    \nframe=  141 fps=0.5 q=33.4 size=    1536KiB time=00:00:04.63 bitrate=2715.8kbits/s speed=0.016x elapsed=0:04:49.74    \nframe=  141 fps=0.5 q=33.4 size=    1536KiB time=00:00:04.63 bitrate=2715.8kbits/s speed=0.016x elapsed=0:04:50.26    \nframe=  142 fps=0.5 q=36.4 size=    1536KiB time=00:00:04.66 bitrate=2696.4kbits/s speed=0.016x elapsed=0:04:50.79    \nframe=  143 fps=0.5 q=36.4 size=    1536KiB time=00:00:04.70 bitrate=2677.3kbits/s speed=0.0161x elapsed=0:04:51.32    \nframe=  143 fps=0.5 q=36.4 size=    1536KiB time=00:00:04.70 bitrate=2677.3kbits/s speed=0.0161x elapsed=0:04:51.85    \nframe=  143 fps=0.5 q=36.4 size=    1536KiB time=00:00:04.70 bitrate=2677.3kbits/s speed=0.0161x elapsed=0:04:52.39    \nframe=  144 fps=0.5 q=29.4 size=    1536KiB time=00:00:04.73 bitrate=2658.4kbits/s speed=0.0162x elapsed=0:04:52.92    \nframe=  144 fps=0.5 q=29.4 size=    1536KiB time=00:00:04.73 bitrate=2658.4kbits/s speed=0.0161x elapsed=0:04:53.45    \nframe=  144 fps=0.5 q=29.4 size=    1536KiB time=00:00:04.73 bitrate=2658.4kbits/s speed=0.0161x elapsed=0:04:53.96    \nframe=  145 fps=0.5 q=34.5 size=    1536KiB time=00:00:04.76 bitrate=2639.8kbits/s speed=0.0162x elapsed=0:04:54.48    \nframe=  145 fps=0.5 q=34.5 size=    1536KiB time=00:00:04.76 bitrate=2639.8kbits/s speed=0.0162x elapsed=0:04:55.01    \nframe=  146 fps=0.5 q=36.3 size=    1536KiB time=00:00:04.80 bitrate=2621.5kbits/s speed=0.0162x elapsed=0:04:55.53    \nframe=  147 fps=0.5 q=30.9 size=    1536KiB time=00:00:04.83 bitrate=2603.4kbits/s speed=0.0163x elapsed=0:04:56.05    \nframe=  147 fps=0.5 q=30.9 size=    1536KiB time=00:00:04.83 bitrate=2603.4kbits/s speed=0.0163x elapsed=0:04:56.57    \nframe=  147 fps=0.5 q=30.9 size=    1536KiB time=00:00:04.83 bitrate=2603.4kbits/s speed=0.0163x elapsed=0:04:57.11    \nframe=  147 fps=0.5 q=30.9 size=    1536KiB time=00:00:04.83 bitrate=2603.4kbits/s speed=0.0162x elapsed=0:04:57.65    \nframe=  147 fps=0.5 q=30.9 size=    1536KiB time=00:00:04.83 bitrate=2603.4kbits/s speed=0.0162x elapsed=0:04:58.20    \nframe=  147 fps=0.5 q=30.9 size=    1536KiB time=00:00:04.83 bitrate=2603.4kbits/s speed=0.0162x elapsed=0:04:58.74    \nframe=  148 fps=0.5 q=30.6 size=    1536KiB time=00:00:04.86 bitrate=2585.6kbits/s speed=0.0163x elapsed=0:04:59.27    \nframe=  149 fps=0.5 q=34.0 size=    1536KiB time=00:00:04.90 bitrate=2568.0kbits/s speed=0.0163x elapsed=0:04:59.79    \nframe=  149 fps=0.5 q=34.0 size=    1536KiB time=00:00:04.90 bitrate=2568.0kbits/s speed=0.0163x elapsed=0:05:00.35    \n[mp4 @ 00000129dde3a980] Starting second pass: moving the moov atom to the beginning of the file\n[out#0/mp4 @ 00000129dde41700] video:1799KiB audio:0KiB subtitle:0KiB other streams:0KiB global headers:2KiB muxing overhead: 0.287095%\nframe=  150 fps=0.5 q=31.8 Lsize=    1804KiB time=00:00:04.93 bitrate=2995.4kbits/s speed=0.0164x elapsed=0:05:00.58    \nx265 [info]: frame I:      1, Avg QP:32.58  kb/s: 12363.36\nx265 [info]: frame P:     38, Avg QP:28.47  kb/s: 8771.50 \nx265 [info]: frame B:    111, Avg QP:34.09  kb/s: 866.94  \nx265 [info]: Weighted P-Frames: Y:39.5% UV:34.2%\n\nencoded 150 frames in 300.29s (0.50 fps), 2946.07 kb/s, Avg QP:32.66\n",
  "seconds": 300.9286251068115,
  "probe_out": {}
}